<svg width="44" height="44" viewBox="0 0 44 44" fill="none" xmlns="http://www.w3.org/2000/svg">
<mask id="path-1-outside-1_8358_101194" maskUnits="userSpaceOnUse" x="0" y="0" width="44" height="44" fill="black">
<rect fill="white" width="44" height="44"/>
<path d="M2 22C2 10.9543 10.9543 2 22 2C33.0457 2 42 10.9543 42 22C42 33.0457 33.0457 42 22 42C10.9543 42 2 33.0457 2 22Z"/>
</mask>
<path d="M2 22C2 10.9543 10.9543 2 22 2C33.0457 2 42 10.9543 42 22C42 33.0457 33.0457 42 22 42C10.9543 42 2 33.0457 2 22Z" fill="#2F6127" fill-opacity="0.9"/>
<path d="M2 22M42 22M42 22M2 22M22 2M42 22M22 42M2 22M22 42V40C12.0589 40 4 31.9411 4 22H2H0C0 34.1503 9.84974 44 22 44V42ZM42 22H40C40 31.9411 31.9411 40 22 40V42V44C34.1503 44 44 34.1503 44 22H42ZM22 2V4C31.9411 4 40 12.0589 40 22H42H44C44 9.84974 34.1503 0 22 0V2ZM22 2V0C9.84974 0 0 9.84974 0 22H2H4C4 12.0589 12.0589 4 22 4V2Z" fill="white" mask="url(#path-1-outside-1_8358_101194)"/>
<path d="M30.1517 20.7793C30.4254 21.0529 30.507 21.4647 30.359 21.8227C30.2109 22.1798 29.8619 22.4131 29.4752 22.4131H18.9479V31.0266C18.9479 31.5551 18.519 31.984 17.9906 31.984C17.4621 31.984 17.0332 31.5551 17.0332 31.0266V13.7996C17.0332 13.2712 17.4621 12.8423 17.9906 12.8423H29.4752C29.8619 12.8423 30.2109 13.0756 30.359 13.4327C30.507 13.7907 30.4254 14.2016 30.1517 14.4762L27.0006 17.6282L30.1517 20.7793Z" fill="white"/>
</svg>
