<svg width="143" height="68" viewBox="0 0 143 68" fill="none" xmlns="http://www.w3.org/2000/svg">
<path d="M79.1133 29.7962C79.3589 30.2966 79.5908 30.786 79.8474 31.2533H79.8695C80.1565 30.7529 80.4215 30.1998 80.6865 29.6579L81.6855 27.6256C82.163 26.6579 82.4721 26.0717 82.4942 25.5823C82.8557 25.6155 83.0793 25.6155 83.2918 25.6155C83.5568 25.6155 83.9073 25.6044 84.2385 25.5823C84.302 25.6238 84.302 25.8062 84.2495 25.8477L84.026 25.8698C83.3553 25.9334 83.2725 26.1353 83.2808 26.8818C83.3029 28.01 83.3139 29.9786 83.3967 31.5132C83.4298 32.0441 83.4188 32.3317 83.9183 32.3759L84.2578 32.4091C84.3213 32.4727 84.3102 32.6331 84.2357 32.6745C83.7996 32.6524 83.3636 32.6414 82.9827 32.6414C82.6018 32.6414 82.1327 32.6524 81.6966 32.6745C81.6221 32.622 81.611 32.4727 81.6745 32.4091L81.9836 32.3759C82.5052 32.3234 82.5052 32.1519 82.5052 31.4718L82.4721 27.0339H82.45C82.3755 27.15 81.9726 28.0017 81.7601 28.4164L80.8134 30.28C80.3359 31.2174 79.8585 32.2183 79.6653 32.7077C79.6432 32.7409 79.6018 32.7492 79.5604 32.7492C79.5383 32.7492 79.4859 32.7381 79.4638 32.7077C79.2844 32.1437 78.7738 31.1012 78.5282 30.5787L77.5733 28.5243C77.3497 28.0348 77.1261 27.4818 76.8943 26.9924H76.8722C76.8308 27.6533 76.7977 28.2699 76.7674 28.8865C76.7342 29.5362 76.6928 30.4819 76.6928 31.3888C76.6928 32.1768 76.7563 32.3455 77.1703 32.3787L77.5733 32.4119C77.6478 32.4755 77.6367 32.6469 77.5622 32.6773C77.2007 32.6552 76.7867 32.6441 76.3837 32.6441C76.0443 32.6441 75.6606 32.6552 75.2991 32.6773C75.2356 32.6248 75.2135 32.4644 75.277 32.4119L75.5116 32.3787C75.9587 32.3151 76.1077 32.2515 76.1712 31.5049C76.2347 30.8026 76.2871 30.2164 76.3506 29.163C76.403 28.2782 76.4472 27.374 76.4665 26.7906C76.4886 26.1187 76.403 25.9611 75.7545 25.8754L75.5833 25.8532C75.5309 25.7897 75.542 25.6293 75.6247 25.5878C75.9449 25.6099 76.1988 25.621 76.4638 25.621C76.7094 25.621 76.9937 25.621 77.3469 25.5878C77.3055 26.0026 77.5705 26.6634 77.8989 27.3436L79.1105 29.8017L79.1133 29.7962Z" fill="white"/>
<path d="M85.4776 29.5833C85.4776 29.1685 85.4776 29.116 85.1906 28.9225L85.094 28.8589C85.0526 28.8174 85.0526 28.6985 85.105 28.6681C85.3479 28.5824 85.9551 28.3059 86.198 28.1455C86.2504 28.1455 86.2946 28.1676 86.3029 28.2091C86.2808 28.5824 86.2615 29.0939 86.2615 29.528V31.4441C86.2615 32.2101 86.2835 32.3179 86.6644 32.3704L86.888 32.4036C86.9625 32.4561 86.9404 32.6386 86.8659 32.669C86.5457 32.6469 86.2394 32.6359 85.8668 32.6359C85.4942 32.6359 85.1658 32.6469 84.8677 32.669C84.7932 32.6359 84.7711 32.4561 84.8456 32.4036L85.0692 32.3704C85.4611 32.3179 85.4721 32.2101 85.4721 31.4441V29.5805L85.4776 29.5833ZM86.3608 26.5501C86.3608 26.9344 86.0959 27.1031 85.7978 27.1031C85.4694 27.1031 85.2568 26.857 85.2568 26.5722C85.2568 26.221 85.5108 25.9971 85.8309 25.9971C86.1511 25.9971 86.3608 26.2515 86.3608 26.5501Z" fill="white"/>
<path d="M88.1023 29.5833C88.1023 29.1686 88.1023 29.116 87.8153 28.9225L87.7187 28.8589C87.6773 28.8174 87.6773 28.6985 87.7297 28.6681C87.9726 28.5824 88.5798 28.3059 88.7923 28.1455C88.8337 28.1455 88.8889 28.1676 88.9082 28.2202C88.8861 28.4663 88.8861 28.6239 88.8861 28.7206C88.8861 28.7842 88.9275 28.8368 89.002 28.8368C89.4491 28.5603 89.9487 28.2948 90.4896 28.2948C91.3728 28.2948 91.7316 28.9004 91.7316 29.6137V31.4442C91.7316 32.2101 91.7537 32.3179 92.1345 32.3704L92.3691 32.4036C92.4437 32.4562 92.4216 32.6387 92.3471 32.6691C92.0269 32.647 91.7206 32.6359 91.348 32.6359C90.9754 32.6359 90.647 32.647 90.3599 32.6691C90.2854 32.6359 90.2633 32.4562 90.3378 32.4036L90.5393 32.3704C90.9312 32.3069 90.9423 32.2101 90.9423 31.4442V29.8571C90.9423 29.2515 90.6663 28.8036 89.9432 28.8036C89.5402 28.8036 89.1897 28.975 89.0407 29.1769C88.9027 29.3566 88.8806 29.5059 88.8806 29.8156V31.4442C88.8806 32.2101 88.9027 32.3069 89.2836 32.3704L89.474 32.4036C89.5485 32.4562 89.5264 32.6387 89.4519 32.6691C89.1649 32.647 88.8558 32.6359 88.4859 32.6359C88.1161 32.6359 87.7849 32.647 87.4868 32.6691C87.4123 32.6359 87.3902 32.4562 87.4648 32.4036L87.6883 32.3704C88.0802 32.3179 88.0913 32.2101 88.0913 31.4442V29.5806L88.1023 29.5833Z" fill="white"/>
<path d="M93.5753 29.5833C93.5753 29.1685 93.5753 29.116 93.2883 28.9225L93.1917 28.8589C93.1503 28.8174 93.1503 28.6985 93.2027 28.6681C93.4456 28.5824 94.0528 28.3059 94.2956 28.1455C94.3481 28.1455 94.3922 28.1676 94.4005 28.2091C94.3784 28.5824 94.3591 29.0939 94.3591 29.528V31.4441C94.3591 32.2101 94.3812 32.3179 94.7621 32.3704L94.9856 32.4036C95.0601 32.4561 95.0381 32.6386 94.9635 32.669C94.6434 32.6469 94.337 32.6359 93.9644 32.6359C93.5919 32.6359 93.2634 32.6469 92.9654 32.669C92.8908 32.6359 92.8688 32.4561 92.9433 32.4036L93.1668 32.3704C93.5587 32.3179 93.5698 32.2101 93.5698 31.4441V29.5805L93.5753 29.5833ZM94.4557 26.5501C94.4557 26.9344 94.1908 27.1031 93.8927 27.1031C93.5643 27.1031 93.3517 26.857 93.3517 26.5722C93.3517 26.221 93.6057 25.9971 93.9258 25.9971C94.246 25.9971 94.4557 26.2515 94.4557 26.5501Z" fill="white"/>
<path d="M98.0686 28.4883C98.1652 28.7233 98.2397 29.0634 98.2397 29.351C98.1983 29.4257 98.0382 29.4478 97.9858 29.3842C97.8064 28.9169 97.4862 28.6072 97.0502 28.6072C96.6141 28.6072 96.3712 28.8727 96.3712 29.257C96.3712 29.6939 96.8183 29.9261 97.1882 30.1418C97.7512 30.4625 98.2728 30.822 98.2728 31.5796C98.2728 32.3897 97.5276 32.7934 96.7438 32.7934C96.2443 32.7934 95.8717 32.6884 95.6067 32.4727C95.5212 32.2709 95.4577 31.7483 95.4798 31.3971C95.5322 31.3335 95.6702 31.3225 95.7226 31.386C95.9048 31.9722 96.2443 32.4838 96.8487 32.4838C97.2323 32.4838 97.5607 32.2598 97.5607 31.8036C97.5607 31.3142 97.1357 31.0487 96.7438 30.8248C96.1283 30.4736 95.6923 30.1003 95.6923 29.5141C95.6923 28.7372 96.3298 28.3003 97.1385 28.3003C97.5856 28.3003 97.9775 28.4054 98.0741 28.4911L98.0686 28.4883Z" fill="white"/>
<path d="M100.398 28.8922C100.218 28.8922 100.207 28.9253 100.207 29.1465V31.1373C100.207 31.7539 100.282 32.318 100.983 32.318C101.088 32.318 101.184 32.2959 101.27 32.2655C101.367 32.2323 101.505 32.1162 101.535 32.1162C101.62 32.1162 101.662 32.2323 101.64 32.2959C101.449 32.5199 101.066 32.7853 100.525 32.7853C99.6112 32.7853 99.4208 32.2738 99.4208 31.635V29.1963C99.4208 28.9087 99.4098 28.8866 99.1973 28.8866H98.8992C98.8357 28.8451 98.8247 28.7263 98.8661 28.6627C99.1752 28.5659 99.4401 28.4276 99.545 28.3336C99.683 28.2064 99.8845 27.9189 99.9921 27.706C100.045 27.6838 100.172 27.6838 100.216 27.7585V28.2368C100.216 28.4276 100.227 28.4387 100.406 28.4387H101.585C101.712 28.5355 101.689 28.823 101.596 28.8866H100.395L100.398 28.8922Z" fill="white"/>
<path d="M102.68 29.5833C102.68 29.1686 102.68 29.116 102.393 28.9225L102.297 28.8589C102.255 28.8174 102.255 28.6985 102.308 28.6681C102.551 28.5824 103.116 28.3059 103.381 28.1455C103.434 28.1566 103.467 28.1787 103.467 28.2202V28.8368C103.467 28.8893 103.478 28.9225 103.5 28.9335C103.873 28.6239 104.276 28.2948 104.667 28.2948C104.932 28.2948 105.145 28.4663 105.145 28.7206C105.145 29.0718 104.858 29.21 104.687 29.21C104.582 29.21 104.527 29.1769 104.452 29.1354C104.292 29.0303 104.132 28.964 103.986 28.964C103.815 28.964 103.688 29.0607 103.602 29.1769C103.497 29.3262 103.464 29.6359 103.464 29.9953V31.4442C103.464 32.2101 103.486 32.3373 103.889 32.3704L104.273 32.4036C104.347 32.4562 104.325 32.6387 104.251 32.6691C103.751 32.647 103.442 32.6359 103.072 32.6359C102.702 32.6359 102.371 32.647 102.095 32.6691C102.021 32.6359 101.999 32.4562 102.073 32.4036L102.275 32.3704C102.667 32.3069 102.678 32.2101 102.678 31.4442V29.5806L102.68 29.5833Z" fill="white"/>
<path d="M105.506 34.8314C105.506 34.5439 105.697 34.4056 105.931 34.4056H106.133C106.304 34.4056 106.409 34.331 106.483 34.2148C106.793 33.7365 107.005 33.2885 107.099 33.0342C107.132 32.9484 107.207 32.7245 107.207 32.5752C107.207 32.3623 107.165 32.2351 107.024 31.8397L106.196 29.5613C106.014 29.0608 105.943 28.8065 105.57 28.7318L105.305 28.6793C105.241 28.6267 105.253 28.4442 105.338 28.4138C105.678 28.4359 105.998 28.447 106.348 28.447C106.635 28.447 106.933 28.4359 107.273 28.4138C107.358 28.447 107.369 28.6267 107.295 28.6793L107.03 28.7318C106.881 28.765 106.795 28.7954 106.795 28.87C106.795 28.9972 107.041 29.6885 107.104 29.871L107.444 30.8498C107.507 31.0212 107.709 31.5853 107.753 31.6046C107.786 31.5825 107.954 31.2535 108.145 30.8166L108.506 29.9761C108.741 29.423 108.879 29.0277 108.879 28.9115C108.879 28.8369 108.816 28.7622 108.625 28.7318L108.297 28.6793C108.222 28.6267 108.233 28.4442 108.319 28.4138C108.658 28.4359 108.978 28.447 109.254 28.447C109.53 28.447 109.765 28.4359 110.063 28.4138C110.149 28.4553 110.16 28.6157 110.085 28.6793L109.903 28.7124C109.552 28.776 109.362 29.0857 109.001 29.8406L108.404 31.0655C108.054 31.7788 107.182 33.6314 106.663 34.7899C106.483 35.1936 106.227 35.2904 105.984 35.2904C105.675 35.2904 105.517 35.0996 105.517 34.8314H105.506Z" fill="white"/>
<path d="M117.142 30.4986C117.142 31.8286 116.229 32.7881 114.901 32.7881C113.679 32.7881 112.724 31.9254 112.724 30.5954C112.724 29.2654 113.734 28.2949 114.987 28.2949C116.24 28.2949 117.142 29.188 117.142 30.4986ZM114.857 28.6157C114.156 28.6157 113.634 29.2848 113.634 30.4572C113.634 31.4249 114.07 32.4701 115.006 32.4701C115.942 32.4701 116.229 31.4913 116.229 30.6701C116.229 29.7659 115.867 28.6157 114.857 28.6157Z" fill="white"/>
<path d="M119.383 28.8921C119.204 28.8921 119.204 28.9142 119.204 29.2018V31.447C119.204 32.2129 119.226 32.3401 119.607 32.3733L119.991 32.4064C120.065 32.459 120.043 32.6415 119.968 32.6719C119.491 32.6498 119.182 32.6387 118.809 32.6387C118.437 32.6387 118.108 32.6498 117.788 32.6719C117.714 32.6387 117.692 32.459 117.766 32.4064L118.012 32.3733C118.404 32.3207 118.415 32.2129 118.415 31.447V29.2018C118.415 28.9142 118.415 28.8921 118.202 28.8921H117.83C117.766 28.8506 117.755 28.7539 117.796 28.6903L118.255 28.4663C118.34 28.4248 118.415 28.3585 118.415 28.2534C118.415 27.6368 118.489 26.9759 118.743 26.3787C119.008 25.7732 119.604 25.0266 120.656 25.0266C121.219 25.0266 121.696 25.281 121.696 25.6653C121.696 25.8782 121.495 26.0497 121.293 26.0497C121.177 26.0497 121.114 26.0082 121.039 25.9225C120.838 25.6874 120.54 25.4552 120.189 25.4552C119.861 25.4552 119.593 25.657 119.436 26.0414C119.245 26.5308 119.201 27.3077 119.201 27.8414V28.1511C119.201 28.4386 119.201 28.4497 119.381 28.4497H120.592C120.708 28.5548 120.634 28.8534 120.518 28.8976H119.381L119.383 28.8921Z" fill="white"/>
<path d="M76.3396 37.8564C76.3396 36.7504 76.3175 36.59 75.691 36.5153L75.5199 36.4932C75.4564 36.4517 75.4785 36.2582 75.542 36.2278C76.0001 36.2499 76.3589 36.261 76.795 36.261H78.7932C79.4721 36.261 80.1014 36.261 80.2284 36.2278C80.2918 36.4075 80.3553 37.1762 80.3995 37.6435C80.3581 37.7071 80.187 37.7292 80.1345 37.6656C79.9744 37.1651 79.8806 36.7918 79.3259 36.6536C79.1023 36.6011 78.7628 36.59 78.2964 36.59H77.5319C77.2118 36.59 77.2118 36.6121 77.2118 37.0158V39.1449C77.2118 39.4435 77.2449 39.4435 77.5623 39.4435H78.1777C78.6248 39.4435 78.9533 39.4214 79.0802 39.3799C79.2072 39.3384 79.2817 39.2748 79.3341 39.0066L79.4197 38.5698C79.4721 38.5062 79.6543 38.5062 79.6957 38.5808C79.6957 38.8352 79.6543 39.2499 79.6543 39.6564C79.6543 40.0407 79.6957 40.4444 79.6957 40.6795C79.6543 40.7541 79.4721 40.7541 79.4197 40.6905L79.3231 40.2758C79.2817 40.085 79.2072 39.9246 78.9947 39.8721C78.8456 39.8306 78.5917 39.8195 78.1777 39.8195H77.5623C77.2449 39.8195 77.2118 39.8306 77.2118 40.1071V41.6085C77.2118 42.1726 77.2449 42.5348 77.4132 42.7145C77.5402 42.8417 77.7637 42.9606 78.6994 42.9606C79.5163 42.9606 79.8254 42.9191 80.06 42.8002C80.2504 42.6924 80.5375 42.3219 80.8135 41.7689C80.888 41.7163 81.037 41.7468 81.0784 41.8435C81.0039 42.2168 80.7389 43.0352 80.6009 43.3228C79.646 43.3007 78.6994 43.2896 77.7527 43.2896H76.7978C76.3396 43.2896 75.9808 43.3007 75.3516 43.3228C75.2881 43.2896 75.266 43.121 75.3295 43.0574L75.68 43.0242C76.2844 42.9717 76.3396 42.8113 76.3396 41.6942V37.8619V37.8564Z" fill="white"/>
<path d="M82.0581 40.2286C82.0581 39.8138 82.0581 39.7613 81.7711 39.5677L81.6745 39.5041C81.6331 39.4627 81.6331 39.3438 81.6855 39.3134C81.9312 39.2276 82.5356 38.9511 82.7481 38.7908C82.7895 38.7908 82.8447 38.8129 82.864 38.8654C82.8419 39.1115 82.8419 39.2691 82.8419 39.3659C82.8419 39.4295 82.8833 39.482 82.9578 39.482C83.405 39.2055 83.9045 38.9401 84.4454 38.9401C85.3286 38.9401 85.6874 39.5456 85.6874 40.259V42.0894C85.6874 42.8553 85.7095 42.9632 86.0904 43.0157L86.325 43.0489C86.3995 43.1014 86.3774 43.2839 86.3029 43.3143C85.9827 43.2922 85.6764 43.2812 85.3038 43.2812C84.9312 43.2812 84.6028 43.2922 84.3157 43.3143C84.2412 43.2812 84.2191 43.1014 84.2937 43.0489L84.4951 43.0157C84.887 42.9521 84.8981 42.8553 84.8981 42.0894V40.5023C84.8981 39.8968 84.6221 39.4488 83.899 39.4488C83.496 39.4488 83.1455 39.6203 82.9965 39.8221C82.8585 40.0018 82.8364 40.1512 82.8364 40.4608V42.0894C82.8364 42.8553 82.8585 42.9521 83.2394 43.0157L83.4298 43.0489C83.5043 43.1014 83.4822 43.2839 83.4077 43.3143C83.1207 43.2922 82.8116 43.2812 82.4417 43.2812C82.0719 43.2812 81.7407 43.2922 81.4426 43.3143C81.3681 43.2812 81.3461 43.1014 81.4206 43.0489L81.6441 43.0157C82.036 42.9632 82.0471 42.8553 82.0471 42.0894V40.2258L82.0581 40.2286Z" fill="white"/>
<path d="M87.3598 40.1429C87.1998 39.7503 87.1059 39.4074 86.7223 39.3549L86.5098 39.3217C86.4463 39.236 86.4574 39.0866 86.5429 39.0562C86.8079 39.0784 87.1805 39.0894 87.542 39.0894C87.829 39.0894 88.0415 39.0784 88.4031 39.0562C88.4776 39.0977 88.4887 39.2691 88.4141 39.3217L88.2872 39.3438C87.9588 39.3963 87.9477 39.4489 88.0526 39.7696C88.2982 40.5051 88.6046 41.2489 88.8502 41.8019C88.9468 42.0148 88.9882 42.1116 89.0213 42.142C89.0627 42.1088 89.1372 41.9623 89.2228 41.7383C89.3608 41.3761 89.7223 40.4498 89.8272 40.1733C89.9763 39.8 90.0177 39.5761 90.0177 39.5125C90.0177 39.4157 89.9542 39.3742 89.8272 39.3521L89.5843 39.3189C89.5209 39.2443 89.5319 39.0949 89.6064 39.0535C89.9349 39.0756 90.2026 39.0866 90.404 39.0866C90.669 39.0866 90.8512 39.0756 91.1492 39.0535C91.2237 39.0949 91.2348 39.2553 91.1713 39.3189L91.0112 39.341C90.6386 39.3936 90.5448 39.6701 90.2357 40.2673C90.0867 40.5549 89.427 42.0977 89.2587 42.5346C89.151 42.8001 89.0462 43.0461 88.9082 43.4084C88.8861 43.4415 88.8447 43.4498 88.8033 43.4498C88.7509 43.4498 88.6957 43.4388 88.6653 43.4084C88.5797 43.1097 88.4197 42.695 88.2623 42.3024L87.3709 40.1429H87.3598Z" fill="white"/>
<path d="M92.0133 40.2286C92.0133 39.8138 92.0133 39.7613 91.7263 39.5677L91.6297 39.5041C91.5883 39.4626 91.5883 39.3438 91.6407 39.3133C91.8836 39.2276 92.4908 38.9511 92.7336 38.7908C92.7861 38.7908 92.8302 38.8129 92.8385 38.8543C92.8164 39.2276 92.7971 39.7392 92.7971 40.1733V42.0894C92.7971 42.8553 92.8192 42.9632 93.2001 43.0157L93.4236 43.0489C93.4981 43.1014 93.476 43.2839 93.4015 43.3143C93.0814 43.2922 92.775 43.2811 92.4024 43.2811C92.0298 43.2811 91.7014 43.2922 91.4033 43.3143C91.3288 43.2811 91.3067 43.1014 91.3813 43.0489L91.6048 43.0157C91.9967 42.9632 92.0078 42.8553 92.0078 42.0894V40.2258L92.0133 40.2286ZM92.8965 37.1953C92.8965 37.5797 92.6315 37.7483 92.3334 37.7483C92.005 37.7483 91.7925 37.5023 91.7925 37.2175C91.7925 36.8663 92.0464 36.6423 92.3666 36.6423C92.6867 36.6423 92.8965 36.8967 92.8965 37.1953Z" fill="white"/>
<path d="M94.6379 40.2286C94.6379 39.8138 94.6379 39.7613 94.3508 39.5677L94.2542 39.5041C94.2128 39.4627 94.2128 39.3438 94.2653 39.3134C94.5081 39.2276 95.0739 38.9511 95.3389 38.7908C95.3913 38.8018 95.4244 38.8239 95.4244 38.8654V39.482C95.4244 39.5346 95.4355 39.5677 95.4576 39.5788C95.8301 39.2691 96.2331 38.9401 96.625 38.9401C96.89 38.9401 97.1025 39.1115 97.1025 39.3659C97.1025 39.717 96.8154 39.8553 96.6443 39.8553C96.5395 39.8553 96.4843 39.8221 96.4097 39.7806C96.2497 39.6756 96.0896 39.6092 95.9433 39.6092C95.7722 39.6092 95.6452 39.706 95.5597 39.8221C95.4548 39.9714 95.4217 40.2811 95.4217 40.6406V42.0894C95.4217 42.8553 95.4438 42.9825 95.8467 43.0157L96.2303 43.0489C96.3049 43.1014 96.2828 43.2839 96.2083 43.3143C95.7087 43.2922 95.3996 43.2812 95.0298 43.2812C94.6599 43.2812 94.3287 43.2922 94.0528 43.3143C93.9782 43.2812 93.9562 43.1014 94.0307 43.0489L94.2321 43.0157C94.6241 42.9521 94.6351 42.8553 94.6351 42.0894V40.2258L94.6379 40.2286Z" fill="white"/>
<path d="M101.745 41.1439C101.745 42.4739 100.831 43.4333 99.5035 43.4333C98.2809 43.4333 97.3259 42.5707 97.3259 41.2407C97.3259 39.9107 98.3361 38.9402 99.5891 38.9402C100.842 38.9402 101.745 39.8333 101.745 41.1439ZM99.4621 39.2609C98.7611 39.2609 98.2395 39.9301 98.2395 41.1024C98.2395 42.0702 98.6755 43.1154 99.6111 43.1154C100.547 43.1154 100.834 42.1365 100.834 41.3153C100.834 40.4112 100.472 39.2609 99.4621 39.2609Z" fill="white"/>
<path d="M103.053 40.2286C103.053 39.8138 103.053 39.7613 102.766 39.5677L102.669 39.5041C102.628 39.4627 102.628 39.3438 102.68 39.3134C102.923 39.2276 103.53 38.9511 103.743 38.7908C103.784 38.7908 103.84 38.8129 103.859 38.8654C103.837 39.1115 103.837 39.2691 103.837 39.3659C103.837 39.4295 103.878 39.482 103.953 39.482C104.4 39.2055 104.899 38.9401 105.44 38.9401C106.324 38.9401 106.682 39.5456 106.682 40.259V42.0894C106.682 42.8553 106.704 42.9632 107.085 43.0157L107.32 43.0489C107.394 43.1014 107.372 43.2839 107.298 43.3143C106.978 43.2922 106.671 43.2812 106.299 43.2812C105.926 43.2812 105.598 43.2922 105.311 43.3143C105.236 43.2812 105.214 43.1014 105.289 43.0489L105.49 43.0157C105.882 42.9521 105.893 42.8553 105.893 42.0894V40.5023C105.893 39.8968 105.617 39.4488 104.894 39.4488C104.491 39.4488 104.14 39.6203 103.991 39.8221C103.853 40.0018 103.831 40.1512 103.831 40.4608V42.0894C103.831 42.8553 103.853 42.9521 104.234 43.0157L104.425 43.0489C104.499 43.1014 104.477 43.2839 104.403 43.3143C104.116 43.2922 103.806 43.2812 103.437 43.2812C103.067 43.2812 102.736 43.2922 102.438 43.3143C102.363 43.2812 102.341 43.1014 102.415 43.0489L102.639 43.0157C103.031 42.9632 103.042 42.8553 103.042 42.0894V40.2258L103.053 40.2286Z" fill="white"/>
<path d="M114.156 40.5493C114.156 39.8249 113.836 39.4516 113.168 39.4516C112.765 39.4516 112.434 39.6313 112.285 39.8249C112.158 39.9853 112.125 40.0903 112.125 40.4636V42.0922C112.125 42.8581 112.147 42.9659 112.528 43.0185L112.751 43.0517C112.826 43.1042 112.804 43.2867 112.729 43.3171C112.412 43.295 112.103 43.2839 111.73 43.2839C111.358 43.2839 111.06 43.295 110.764 43.3171C110.69 43.2839 110.668 43.1042 110.742 43.0517L110.933 43.0185C111.324 42.9549 111.335 42.8581 111.335 42.0922V40.5493C111.335 39.8359 111.015 39.4516 110.358 39.4516C109.922 39.4516 109.624 39.6424 109.467 39.8359C109.362 39.9631 109.307 40.1014 109.307 40.4415V42.0922C109.307 42.8581 109.329 42.9549 109.71 43.0185L109.9 43.0517C109.975 43.1042 109.953 43.2867 109.878 43.3171C109.591 43.295 109.282 43.2839 108.912 43.2839C108.542 43.2839 108.211 43.295 107.883 43.3171C107.808 43.2839 107.786 43.1042 107.861 43.0517L108.115 43.0185C108.507 42.9659 108.518 42.8581 108.518 42.0922V40.2286C108.518 39.8138 108.518 39.7613 108.231 39.5677L108.134 39.5041C108.093 39.4627 108.093 39.3438 108.145 39.3134C108.388 39.2276 108.995 38.9511 109.208 38.7908C109.249 38.7908 109.304 38.8129 109.324 38.8654C109.301 39.1115 109.301 39.2691 109.301 39.3659C109.301 39.4295 109.343 39.482 109.417 39.482C109.82 39.1945 110.32 38.9401 110.83 38.9401C111.341 38.9401 111.658 39.1309 111.956 39.5677C112.053 39.5899 112.128 39.5456 112.221 39.482C112.646 39.1834 113.168 38.9401 113.668 38.9401C114.518 38.9401 114.932 39.5263 114.932 40.259V42.0894C114.932 42.8553 114.954 42.9632 115.335 43.0157L115.589 43.0489C115.663 43.1014 115.641 43.2839 115.566 43.3143C115.216 43.2922 114.907 43.2812 114.537 43.2812C114.167 43.2812 113.866 43.2922 113.571 43.3143C113.497 43.2812 113.474 43.1014 113.549 43.0489L113.739 43.0157C114.131 42.9521 114.142 42.8553 114.142 42.0894V40.5466L114.156 40.5493Z" fill="white"/>
<path d="M117.12 40.5604C116.844 40.5604 116.833 40.5825 116.833 40.848C116.833 41.9236 117.46 42.8388 118.597 42.8388C118.947 42.8388 119.245 42.7337 119.574 42.3162C119.681 42.283 119.753 42.3494 119.764 42.4434C119.414 43.1678 118.649 43.4333 118.097 43.4333C117.407 43.4333 116.864 43.1346 116.557 42.7309C116.24 42.3162 116.11 41.8157 116.11 41.3484C116.11 40.0378 116.971 38.9429 118.246 38.9429C119.16 38.9429 119.756 39.5705 119.756 40.2092C119.756 40.3586 119.734 40.4443 119.715 40.4857C119.681 40.5493 119.535 40.5604 119.088 40.5604H117.123H117.12ZM117.78 40.2397C118.566 40.2397 118.801 40.1982 118.884 40.1346C118.917 40.1125 118.947 40.071 118.947 39.9327C118.947 39.6341 118.746 39.2636 118.13 39.2636C117.515 39.2636 116.963 39.8387 116.952 40.1899C116.952 40.212 116.952 40.2424 117.026 40.2424H117.78V40.2397Z" fill="white"/>
<path d="M120.882 40.2286C120.882 39.8138 120.882 39.7613 120.595 39.5677L120.498 39.5041C120.457 39.4627 120.457 39.3438 120.51 39.3134C120.752 39.2276 121.36 38.9511 121.572 38.7908C121.613 38.7908 121.669 38.8129 121.688 38.8654C121.666 39.1115 121.666 39.2691 121.666 39.3659C121.666 39.4295 121.707 39.482 121.782 39.482C122.229 39.2055 122.728 38.9401 123.269 38.9401C124.153 38.9401 124.511 39.5456 124.511 40.259V42.0894C124.511 42.8553 124.533 42.9632 124.914 43.0157L125.149 43.0489C125.223 43.1014 125.201 43.2839 125.127 43.3143C124.807 43.2922 124.5 43.2812 124.128 43.2812C123.755 43.2812 123.427 43.2922 123.14 43.3143C123.065 43.2812 123.043 43.1014 123.118 43.0489L123.319 43.0157C123.711 42.9521 123.722 42.8553 123.722 42.0894V40.5023C123.722 39.8968 123.446 39.4488 122.723 39.4488C122.32 39.4488 121.97 39.6203 121.82 39.8221C121.682 40.0018 121.66 40.1512 121.66 40.4608V42.0894C121.66 42.8553 121.682 42.9521 122.063 43.0157L122.254 43.0489C122.328 43.1014 122.306 43.2839 122.232 43.3143C121.945 43.2922 121.636 43.2812 121.266 43.2812C120.896 43.2812 120.565 43.2922 120.267 43.3143C120.192 43.2812 120.17 43.1014 120.245 43.0489L120.468 43.0157C120.86 42.9632 120.871 42.8553 120.871 42.0894V40.2258L120.882 40.2286Z" fill="white"/>
<path d="M127.227 39.5374C127.048 39.5374 127.037 39.5706 127.037 39.7918V41.7826C127.037 42.3992 127.111 42.9633 127.812 42.9633C127.917 42.9633 128.014 42.9411 128.099 42.9107C128.196 42.8776 128.334 42.7614 128.364 42.7614C128.45 42.7614 128.491 42.8776 128.469 42.9412C128.279 43.1651 127.895 43.4306 127.354 43.4306C126.441 43.4306 126.25 42.919 126.25 42.2803V39.8416C126.25 39.554 126.239 39.5319 126.027 39.5319H125.729C125.665 39.4904 125.654 39.3715 125.695 39.3079C126.005 39.2111 126.269 39.0729 126.374 38.9789C126.512 38.8517 126.714 38.5641 126.821 38.3512C126.874 38.3291 127.001 38.3291 127.045 38.4038V38.8821C127.045 39.0729 127.056 39.084 127.235 39.084H128.414C128.541 39.1807 128.519 39.4683 128.425 39.5319H127.224L127.227 39.5374Z" fill="white"/>
<path d="M77.4987 51.7257C77.6588 51.6731 77.6781 51.5763 77.6781 51.416L77.6891 50.9266C77.7002 50.5339 77.5732 50.0003 76.9136 50.0003C76.6155 50.0003 76.254 50.1496 76.2347 50.4786C76.2236 50.6501 76.2126 50.7772 76.127 50.8408C75.9669 50.968 75.6799 51.0427 75.5226 51.0427C75.426 51.0427 75.3736 50.9902 75.3736 50.8934C75.3736 50.3404 76.5741 49.5828 77.3497 49.5828C78.1252 49.5828 78.4868 50.0307 78.4536 50.827L78.3902 52.6796C78.3681 53.169 78.4647 53.6059 78.8787 53.6059C78.9835 53.6059 79.0801 53.5727 79.1436 53.5423C79.1961 53.5091 79.2485 53.4676 79.2816 53.4676C79.323 53.4676 79.3561 53.5312 79.3561 53.6059C79.3561 53.6584 78.9835 54.0731 78.4647 54.0731C78.2108 54.0731 77.9541 53.9764 77.7747 53.7441C77.7333 53.6805 77.6671 53.5948 77.6036 53.5948C77.5291 53.5948 77.4021 53.6916 77.1896 53.8077C76.955 53.9349 76.7232 54.0731 76.4251 54.0731C76.127 54.0731 75.8621 53.9874 75.6827 53.8271C75.4812 53.6473 75.3542 53.3791 75.3542 53.0833C75.3542 52.6685 75.5557 52.4224 76.2374 52.1791L77.5015 51.7201L77.4987 51.7257ZM76.8391 53.6003C77.0516 53.6003 77.38 53.44 77.4877 53.3349C77.6146 53.2077 77.6146 53.0584 77.6257 52.8344L77.6477 52.2068C77.6477 52.0906 77.6064 52.0685 77.5401 52.0685C77.4739 52.0685 77.2972 52.11 77.104 52.1736C76.4775 52.3865 76.1684 52.5469 76.1684 52.9616C76.1684 53.1413 76.2954 53.6003 76.8391 53.6003Z" fill="white"/>
<path d="M80.209 50.8741C80.209 50.4593 80.209 50.4068 79.922 50.2132L79.8254 50.1496C79.784 50.1082 79.784 49.9893 79.8364 49.9589C80.082 49.8732 80.6865 49.5967 80.899 49.4363C80.9404 49.4363 80.9956 49.4584 81.0149 49.5109C80.9928 49.757 80.9928 49.9146 80.9928 50.0114C80.9928 50.075 81.0342 50.1275 81.1087 50.1275C81.5558 49.851 82.0554 49.5856 82.5963 49.5856C83.4795 49.5856 83.8383 50.1911 83.8383 50.9045V52.7349C83.8383 53.5008 83.8604 53.6087 84.2412 53.6612L84.4758 53.6944C84.5503 53.7469 84.5283 53.9294 84.4538 53.9598C84.1336 53.9377 83.8273 53.9267 83.4547 53.9267C83.0821 53.9267 82.7536 53.9377 82.4666 53.9598C82.3921 53.9267 82.37 53.7469 82.4445 53.6944L82.646 53.6612C83.0379 53.5976 83.049 53.5008 83.049 52.7349V51.1478C83.049 50.5423 82.773 50.0943 82.0499 50.0943C81.6469 50.0943 81.2964 50.2658 81.1474 50.4676C81.0094 50.6474 80.9873 50.7967 80.9873 51.1063V52.7349C80.9873 53.5008 81.0094 53.5976 81.3902 53.6612L81.5807 53.6944C81.6552 53.7469 81.6331 53.9294 81.5586 53.9598C81.2716 53.9377 80.9625 53.9267 80.5926 53.9267C80.2228 53.9267 79.8916 53.9377 79.5935 53.9598C79.519 53.9267 79.4969 53.7469 79.5714 53.6944L79.795 53.6612C80.1869 53.6087 80.1979 53.5008 80.1979 52.7349V50.8713L80.209 50.8741Z" fill="white"/>
<path d="M89.1428 52.3754C89.1428 53.2159 89.1538 53.6113 89.4519 53.6113C89.5678 53.6113 89.7499 53.5588 89.91 53.5063C89.9845 53.5284 89.9956 53.7938 89.899 53.8464C89.4519 53.91 88.795 54.0703 88.4969 54.1865C88.4335 54.1865 88.381 54.1533 88.381 54.1007V53.921C88.381 53.7606 88.381 53.6335 88.3589 53.592H88.3175C87.8511 53.9127 87.4896 54.0814 86.979 54.0814C85.8005 54.0814 85.0139 53.1551 85.0139 52.038C85.0139 50.5477 86.14 49.591 87.5862 49.591C87.9477 49.591 88.1823 49.6435 88.2982 49.6878C88.3507 49.6878 88.3617 49.6242 88.3617 49.5385V47.932C88.3617 47.3043 88.3507 47.2407 88.0333 47.0472L87.9256 46.9836C87.8732 46.9504 87.8732 46.8011 87.9256 46.7707C88.1906 46.685 88.6901 46.5246 89.0738 46.3228C89.1152 46.3228 89.1593 46.3449 89.1786 46.3864C89.1676 46.7071 89.1455 47.238 89.1455 47.7053V52.3781L89.1428 52.3754ZM88.3589 50.78C88.3589 50.5671 88.3175 50.4703 88.243 50.3652C88.083 50.1412 87.7656 49.9173 87.3516 49.9173C86.3856 49.9173 85.8861 50.7578 85.8861 51.6841C85.8861 52.6104 86.427 53.5671 87.4702 53.5671C87.7573 53.5671 88.1188 53.4399 88.2872 53.2685C88.3507 53.2049 88.3617 53.0445 88.3617 52.8758V50.78H88.3589Z" fill="white"/>
<path d="M94.7234 52.334C94.7234 53.451 94.7455 53.5893 95.4244 53.6639L95.7115 53.6971C95.7749 53.7496 95.7528 53.9321 95.6894 53.9625C95.0849 53.9404 94.7344 53.9294 94.3094 53.9294C93.8623 53.9294 93.4814 53.9404 93.0122 53.9625C92.9488 53.9294 92.9267 53.7607 92.9902 53.6971L93.2137 53.6639C93.8292 53.5782 93.8513 53.451 93.8513 52.334V48.4049C93.8513 47.5007 93.8292 47.3182 93.3517 47.2657L92.9681 47.2242C92.8936 47.1606 92.9046 47.0002 92.9902 46.9588C93.5532 46.8841 94.2128 46.873 95.0932 46.873C95.9736 46.873 96.6333 46.9892 97.1328 47.2989C97.6213 47.6085 97.9829 48.1615 97.9829 48.8943C97.9829 49.8731 97.3785 50.3625 96.9203 50.5865C96.4539 50.8104 95.8908 50.9044 95.4548 50.9044C95.3803 50.8713 95.3803 50.7137 95.4437 50.6915C96.5919 50.4786 97.0059 49.8288 97.0059 48.9026C97.0059 47.8712 96.4014 47.1993 95.2947 47.1993C94.7317 47.1993 94.7206 47.2408 94.7206 47.5837V52.3312L94.7234 52.334Z" fill="white"/>
<path d="M100.29 51.7257C100.45 51.6731 100.47 51.5763 100.47 51.416L100.481 50.9266C100.492 50.5339 100.365 50.0003 99.705 50.0003C99.407 50.0003 99.0454 50.1496 99.0261 50.4786C99.0151 50.6501 99.004 50.7772 98.9212 50.8408C98.7611 50.968 98.4741 51.0427 98.3168 51.0427C98.2202 51.0427 98.1678 50.9902 98.1678 50.8934C98.1678 50.3404 99.3683 49.5828 100.144 49.5828C100.919 49.5828 101.281 50.0307 101.248 50.827L101.184 52.6796C101.162 53.169 101.259 53.6059 101.673 53.6059C101.778 53.6059 101.874 53.5727 101.938 53.5423C101.99 53.5091 102.045 53.4676 102.076 53.4676C102.117 53.4676 102.15 53.5312 102.15 53.6059C102.15 53.6584 101.778 54.0731 101.259 54.0731C101.005 54.0731 100.748 53.9764 100.569 53.7441C100.527 53.6805 100.464 53.5948 100.398 53.5948C100.323 53.5948 100.196 53.6916 99.9838 53.8077C99.7492 53.9349 99.5174 54.0731 99.2193 54.0731C98.9212 54.0731 98.6563 53.9874 98.4769 53.8271C98.2754 53.6473 98.1484 53.3791 98.1484 53.0833C98.1484 52.6685 98.3499 52.4224 99.0316 52.1791L100.296 51.7201L100.29 51.7257ZM99.6305 53.6003C99.843 53.6003 100.171 53.44 100.279 53.3349C100.406 53.2077 100.406 53.0584 100.417 52.8344L100.439 52.2068C100.439 52.0906 100.398 52.0685 100.334 52.0685C100.271 52.0685 100.089 52.11 99.8982 52.1736C99.2717 52.3865 98.9626 52.5469 98.9626 52.9616C98.9626 53.1413 99.0896 53.6003 99.6333 53.6003H99.6305Z" fill="white"/>
<path d="M103 50.8741C103 50.4593 103 50.4068 102.713 50.2132L102.617 50.1496C102.575 50.1082 102.575 49.9893 102.628 49.9589C102.871 49.8732 103.436 49.5967 103.701 49.4363C103.754 49.4473 103.787 49.4695 103.787 49.5109V50.1275C103.787 50.1801 103.798 50.2132 103.82 50.2243C104.193 49.9146 104.596 49.5856 104.988 49.5856C105.253 49.5856 105.465 49.757 105.465 50.0114C105.465 50.3626 105.178 50.5008 105.007 50.5008C104.902 50.5008 104.847 50.4676 104.772 50.4262C104.612 50.3211 104.452 50.2547 104.306 50.2547C104.135 50.2547 104.008 50.3515 103.922 50.4676C103.817 50.6169 103.784 50.9266 103.784 51.2861V52.7349C103.784 53.5008 103.806 53.628 104.209 53.6612L104.593 53.6944C104.667 53.7469 104.645 53.9294 104.571 53.9598C104.071 53.9377 103.762 53.9267 103.392 53.9267C103.022 53.9267 102.691 53.9377 102.415 53.9598C102.341 53.9267 102.319 53.7469 102.393 53.6944L102.595 53.6612C102.987 53.5976 102.998 53.5008 102.998 52.7349V50.8713L103 50.8741Z" fill="white"/>
<path d="M106.252 47.9264C106.252 47.2987 106.241 47.2351 105.923 47.0416L105.818 46.978C105.766 46.9448 105.766 46.7955 105.818 46.7651C106.083 46.6794 106.583 46.519 106.966 46.3171C107.008 46.3171 107.052 46.3393 107.074 46.3807C107.063 46.7015 107.041 47.2324 107.041 47.6996V51.3522C107.041 51.4905 107.052 51.5126 107.231 51.5126C107.466 51.5126 107.667 51.3965 107.954 51.0978L108.391 50.6306C108.689 50.3126 108.763 50.1937 108.763 50.1412C108.763 50.0886 108.711 50.0554 108.529 50.0361L108.275 50.0029C108.178 49.9697 108.178 49.7679 108.275 49.7375H108.52C108.987 49.7375 109.613 49.7153 110.209 49.6517C110.284 49.6849 110.295 49.8646 110.231 49.9172L109.892 49.9808C109.679 50.0223 109.5 50.1301 109.224 50.3541C108.81 50.6831 108.449 51.0674 108.258 51.2472C108.131 51.3633 108.12 51.4186 108.184 51.5015C108.366 51.7476 108.534 51.9495 108.896 52.3532C109.31 52.8204 109.682 53.238 109.895 53.4398C110.044 53.5781 110.256 53.6417 110.447 53.6748L110.596 53.697C110.67 53.7495 110.659 53.932 110.574 53.9624C110.265 53.9403 109.906 53.9292 109.564 53.9292C109.139 53.9292 108.766 53.9403 108.46 53.9624C108.374 53.9209 108.363 53.7384 108.437 53.697L108.628 53.6638C108.788 53.6417 108.893 53.6223 108.893 53.5587C108.893 53.4951 108.851 53.4205 108.713 53.2601L107.576 51.9412C107.48 51.8361 107.364 51.7919 107.248 51.7919C107.058 51.7919 107.046 51.825 107.046 52.1541V52.7403C107.046 53.5062 107.069 53.614 107.449 53.6665L107.703 53.6997C107.778 53.7523 107.756 53.9348 107.681 53.9652C107.331 53.943 107.022 53.932 106.652 53.932C106.282 53.932 105.951 53.943 105.631 53.9652C105.556 53.932 105.534 53.7523 105.62 53.6997L105.854 53.6665C106.246 53.614 106.257 53.5062 106.257 52.7403V47.9291L106.252 47.9264Z" fill="white"/>
<path d="M113.243 49.7791C113.339 50.0141 113.414 50.3542 113.414 50.6418C113.372 50.7164 113.212 50.7385 113.16 50.6749C112.98 50.2077 112.66 49.898 112.224 49.898C111.788 49.898 111.545 50.1634 111.545 50.5478C111.545 50.9846 111.992 51.2169 112.362 51.4326C112.925 51.7533 113.447 52.1128 113.447 52.8704C113.447 53.6805 112.702 54.0842 111.918 54.0842C111.418 54.0842 111.046 53.9791 110.781 53.7635C110.695 53.5616 110.632 53.039 110.654 52.6879C110.706 52.6243 110.844 52.6132 110.897 52.6768C111.079 53.263 111.418 53.7745 112.023 53.7745C112.406 53.7745 112.735 53.5506 112.735 53.0943C112.735 52.6049 112.31 52.3395 111.918 52.1155C111.302 51.7644 110.866 51.3911 110.866 50.8049C110.866 50.0279 111.504 49.5911 112.313 49.5911C112.76 49.5911 113.152 49.6961 113.248 49.7819L113.243 49.7791Z" fill="white"/>
<path d="M20.1806 40.5936C20.1806 39.8553 20.1281 39.659 19.6313 39.6203L19.2864 39.5954C19.2312 39.5512 19.245 39.3493 19.2974 39.3465C19.8935 39.294 20.647 39.2664 21.6764 39.2664C22.3719 39.2664 23.0371 39.3161 23.5339 39.5456C24.0086 39.7558 24.3757 40.1539 24.3757 40.7926C24.3757 41.5115 23.912 41.8821 23.2468 42.1586C23.2468 42.2581 23.3352 42.2885 23.4566 42.3079C24.0527 42.4074 24.9387 42.9079 24.9387 43.9752C24.9387 45.1337 23.9865 45.9135 21.9966 45.9135C21.6764 45.9135 21.1327 45.883 20.6691 45.883C20.2054 45.883 19.8052 45.9024 19.3967 45.9135C19.3305 45.883 19.3084 45.7227 19.3747 45.6646L19.5734 45.6342C20.1585 45.5429 20.1806 45.4351 20.1806 44.3872V40.5936ZM21.0886 41.9208C21.0886 42.2 21.0996 42.2194 21.6626 42.2C22.7915 42.1586 23.3986 41.8599 23.3986 40.9226C23.3986 39.9853 22.59 39.576 21.751 39.576C21.5081 39.576 21.3425 39.5954 21.2431 39.6369C21.1327 39.6673 21.0886 39.7171 21.0886 39.8968V41.9235V41.9208ZM21.0886 44.2379C21.0886 44.5973 21.1107 45.1061 21.3204 45.3273C21.5302 45.5568 21.8614 45.6065 22.1953 45.6065C23.1806 45.6065 23.9313 45.2084 23.9313 44.2102C23.9313 43.4222 23.4897 42.5014 21.7289 42.5014C21.1327 42.5014 21.0886 42.5623 21.0886 42.7613V44.2379Z" fill="white"/>
<path d="M32.6251 41.5751C32.6251 40.6709 32.6058 40.5272 32.0483 40.4829L31.8109 40.4663C31.7557 40.4331 31.7723 40.2783 31.8302 40.2534C32.3022 40.27 32.6251 40.2783 33.0198 40.2783C33.4144 40.2783 33.718 40.27 34.19 40.2534C34.2479 40.2783 34.2645 40.4331 34.2093 40.4663L33.9719 40.4829C33.4144 40.5272 33.3951 40.6709 33.3951 41.5751V44.6111C33.3951 45.5152 33.4144 45.6341 33.9719 45.695L34.2093 45.7199C34.2673 45.753 34.2479 45.9079 34.19 45.9328C33.718 45.9162 33.3951 45.9079 33.0198 45.9079C32.6223 45.9079 32.3022 45.9162 31.8302 45.9328C31.775 45.9079 31.7557 45.7724 31.8109 45.7199L32.0483 45.695C32.6058 45.6369 32.6251 45.5152 32.6251 44.6111V41.5751Z" fill="white"/>
<path d="M37.8689 44.6278C37.8689 45.5236 37.8855 45.6508 38.3988 45.695L38.6831 45.7199C38.7356 45.7531 38.719 45.9079 38.6666 45.9328C38.1615 45.9162 37.8607 45.908 37.5074 45.908C37.1541 45.908 36.8422 45.9162 36.2765 45.9328C36.224 45.9079 36.2047 45.7614 36.2765 45.7199L36.5966 45.695C37.1017 45.6508 37.1458 45.5236 37.1458 44.6278V40.8148C37.1458 40.5521 37.1458 40.5438 36.8809 40.5438H36.3951C36.0143 40.5438 35.5285 40.5604 35.305 40.7567C35.0925 40.9448 35.0041 41.1328 34.9075 41.3457C34.8358 41.3982 34.7143 41.354 34.6785 41.2876C34.8192 40.9033 34.9545 40.3586 35.0152 40.0157C35.0428 39.9991 35.1559 39.9908 35.1835 40.0157C35.236 40.2894 35.5285 40.2811 35.937 40.2811H39.5221C39.9996 40.2811 40.0796 40.2646 40.2121 40.0434C40.2563 40.0268 40.3529 40.0351 40.3722 40.0682C40.2756 40.4166 40.2121 41.1079 40.2397 41.365C40.2038 41.4342 40.0548 41.4342 40.0106 41.3816C39.983 41.1687 39.9223 40.8535 39.7898 40.7595C39.5856 40.6157 39.2489 40.5466 38.7632 40.5466H38.1339C37.8689 40.5466 37.8772 40.5549 37.8772 40.8369V44.6305L37.8689 44.6278Z" fill="white"/>
<path d="M41.6609 41.5751C41.6609 40.6709 41.6416 40.5272 41.0841 40.4829L40.8468 40.4663C40.7888 40.4331 40.8081 40.2783 40.8661 40.2534C41.338 40.27 41.6609 40.2783 42.0556 40.2783C42.4503 40.2783 42.7539 40.27 43.2258 40.2534C43.2838 40.2783 43.3003 40.4331 43.2451 40.4663L43.0078 40.4829C42.4503 40.5272 42.431 40.6709 42.431 41.5751V44.6111C42.431 45.5152 42.4503 45.6341 43.0078 45.695L43.2451 45.7199C43.3003 45.753 43.2838 45.9079 43.2258 45.9328C42.7539 45.9162 42.431 45.9079 42.0556 45.9079C41.6582 45.9079 41.338 45.9162 40.8661 45.9328C40.8081 45.9079 40.7916 45.7724 40.8468 45.7199L41.0841 45.695C41.6416 45.6369 41.6609 45.5152 41.6609 44.6111V41.5751Z" fill="white"/>
<path d="M45.8974 46.0214C45.0529 46.0214 44.5202 45.8002 44.3298 45.7062C44.2084 45.5182 44.0786 44.9126 44.0593 44.5117C44.109 44.4509 44.2608 44.4343 44.2994 44.4868C44.4485 44.9209 44.8625 45.7559 46.0272 45.7559C46.8717 45.7559 47.2829 45.2887 47.2829 44.7771C47.2829 44.4011 47.1918 43.9836 46.4605 43.5826L45.5055 43.0545C45.0032 42.7725 44.4209 42.2859 44.4209 41.5863C44.4209 40.7762 45.1633 40.1208 46.4687 40.1208C46.7806 40.1208 47.1422 40.1734 47.4016 40.2314C47.5313 40.2646 47.6721 40.2812 47.7521 40.2812C47.8432 40.4858 47.9343 40.9642 47.9343 41.3209C47.8929 41.3734 47.7328 41.3983 47.6831 41.3457C47.5534 40.9365 47.2802 40.3808 46.3169 40.3808C45.3537 40.3808 45.1219 40.9338 45.1219 41.3264C45.1219 41.8213 45.6049 42.178 45.9747 42.3743L46.7779 42.8001C47.4099 43.132 48.0336 43.6269 48.0336 44.437C48.0336 45.3744 47.2001 46.0159 45.8947 46.0159L45.8974 46.0214Z" fill="white"/>
<path d="M50.951 43.1541C50.5122 43.1541 50.4929 43.1707 50.4929 43.4278V44.6306C50.4929 45.5265 50.5398 45.6454 51.0504 45.6979L51.3153 45.7228C51.3705 45.756 51.3512 45.9108 51.296 45.9357C50.802 45.9191 50.4901 45.9108 50.1313 45.9108C49.7366 45.9108 49.4248 45.9274 49.0687 45.9357C49.0135 45.9108 48.9942 45.7753 49.0494 45.7228L49.204 45.6979C49.7173 45.6122 49.7339 45.5265 49.7339 44.6306V41.5614C49.7339 40.6656 49.6704 40.5218 49.1929 40.4858L48.9556 40.4693C48.9004 40.4361 48.9197 40.2812 48.9749 40.2563C49.4248 40.2646 49.7339 40.2812 50.1286 40.2812C50.4846 40.2812 50.7965 40.2729 51.1911 40.2563C51.2463 40.2812 51.2656 40.4361 51.2104 40.4693L51.0366 40.4858C50.5039 40.5384 50.4873 40.6656 50.4873 41.5614V42.5403C50.4873 42.8057 50.5067 42.814 50.9455 42.814H53.5647C54.0035 42.814 54.0228 42.8057 54.0228 42.5403V41.5614C54.0228 40.6656 54.0035 40.5384 53.4625 40.4858L53.2887 40.4693C53.2335 40.4361 53.2528 40.2812 53.308 40.2563C53.7303 40.2729 54.0421 40.2812 54.4175 40.2812C54.7928 40.2812 55.0854 40.2729 55.4994 40.2563C55.5546 40.2812 55.5739 40.4361 55.5187 40.4693L55.3255 40.4858C54.7956 40.5384 54.7763 40.6656 54.7763 41.5614V44.6306C54.7763 45.5265 54.7956 45.6371 55.3255 45.6979L55.5463 45.7228C55.6015 45.756 55.5822 45.9108 55.527 45.9357C55.0881 45.9191 54.7763 45.9108 54.4175 45.9108C54.0421 45.9108 53.7137 45.9191 53.308 45.9357C53.2528 45.9108 53.2335 45.7753 53.2887 45.7228L53.4625 45.6979C54.0228 45.6122 54.0228 45.5265 54.0228 44.6306V43.4278C54.0228 43.1734 54.0035 43.1541 53.5647 43.1541H50.9455H50.951Z" fill="white"/>
<path d="M14.9394 47.8076C15.6929 47.2214 16.6506 46.9338 17.7242 46.9338C18.2817 46.9338 19.0655 47.0472 19.5513 47.1799C19.6755 47.2103 19.7472 47.2325 19.8411 47.2214C19.8521 47.4592 19.9018 48.1062 19.9846 48.7339C19.9321 48.8058 19.7776 48.8168 19.7058 48.7532C19.5513 48.0537 19.0876 47.249 17.5917 47.249C16.013 47.249 14.6745 48.2472 14.6745 50.379C14.6745 52.5109 16.0462 53.7358 17.738 53.7358C19.0683 53.7358 19.6561 52.8703 19.8935 52.262C19.9652 52.2095 20.1198 52.2316 20.1612 52.3035C20.0894 52.8399 19.8217 53.5173 19.6672 53.7137C19.543 53.7358 19.4188 53.7745 19.3056 53.816C19.0793 53.8989 18.3369 54.0538 17.6773 54.0538C16.7499 54.0538 15.8612 53.8685 15.1105 53.3625C14.2853 52.7957 13.645 51.8583 13.645 50.5311C13.645 49.3892 14.1611 48.4104 14.9449 47.8021L14.9394 47.8076Z" fill="white"/>
<path d="M20.5808 51.1366C20.5808 49.4306 21.9221 48.1255 23.763 48.1255C25.8274 48.1255 26.8652 49.5495 26.8652 51.0509C26.8652 52.7735 25.488 54.026 23.763 54.026C21.7786 54.026 20.5808 52.6712 20.5808 51.1338V51.1366ZM25.9682 51.3163C25.9682 49.9089 25.3168 48.3909 23.6084 48.3909C22.6784 48.3909 21.4723 48.9965 21.4723 50.8656C21.4723 52.1265 22.1153 53.7661 23.8762 53.7661C24.9498 53.7661 25.9682 52.9974 25.9682 51.3191V51.3163Z" fill="white"/>
<path d="M36.947 50.4038C36.947 49.8757 36.9277 48.8941 36.7759 48.6397C36.7124 48.5374 36.5496 48.4766 36.326 48.46L36.0997 48.4434C36.0445 48.3825 36.0638 48.2719 36.1163 48.2388C36.4585 48.2554 36.7925 48.2637 37.1457 48.2637C37.5238 48.2637 37.7695 48.2554 38.0924 48.2388C38.1641 48.2802 38.1559 48.3908 38.1117 48.4434L37.8937 48.46C37.6674 48.4766 37.4962 48.554 37.4438 48.6646C37.3168 48.9466 37.3168 49.9254 37.3168 50.4038V51.3688C37.3168 52.1098 37.1899 52.8951 36.6848 53.4066C36.2957 53.8075 35.6278 54.0287 34.9599 54.0287C34.3361 54.0287 33.7151 53.9181 33.2736 53.5587C32.7961 53.1826 32.5698 52.5605 32.5698 51.5457V49.5328C32.5698 48.6452 32.5505 48.5014 32.0288 48.46L31.8025 48.4434C31.7473 48.4102 31.7666 48.2637 31.8218 48.2388C32.2717 48.2554 32.5808 48.2637 32.9396 48.2637C33.2984 48.2637 33.6075 48.2554 34.0491 48.2388C34.1043 48.2637 34.1209 48.4102 34.0684 48.4434L33.8504 48.46C33.326 48.5014 33.3094 48.648 33.3094 49.5328V51.3743C33.3094 52.7485 33.7593 53.6527 35.142 53.6527C36.4502 53.6527 36.947 52.6794 36.947 51.3854V50.4038Z" fill="white"/>
<path d="M47.4348 49.3393C47.4348 48.7033 47.3934 48.5374 46.9463 48.5043L46.6261 48.4738C46.5902 48.4407 46.5709 48.2692 46.6371 48.2637C47.1753 48.2222 47.8543 48.1946 48.7816 48.1946C49.4109 48.1946 50.007 48.2388 50.4569 48.4351C50.8847 48.6149 51.2131 48.9605 51.2131 49.5107C51.2131 50.1301 50.7936 50.4508 50.1974 50.6914C50.1974 50.7771 50.2775 50.8048 50.3879 50.8213C50.9261 50.9071 51.7237 51.3384 51.7237 52.2592C51.7237 53.2573 50.8653 53.9292 49.0714 53.9292C48.7816 53.9292 48.2931 53.9043 47.8763 53.9043C47.4596 53.9043 47.098 53.9209 46.7282 53.9292C46.6675 53.9043 46.6482 53.7661 46.7089 53.7136L46.8883 53.6859C47.4182 53.6085 47.4375 53.5145 47.4375 52.6103V49.3365L47.4348 49.3393ZM48.2517 50.484C48.2517 50.7246 48.2627 50.7412 48.7706 50.7246C49.789 50.6914 50.3354 50.4315 50.3354 49.6213C50.3354 48.8112 49.6068 48.46 48.8506 48.46C48.6298 48.46 48.4808 48.4766 48.3924 48.5126C48.2931 48.5374 48.2545 48.5817 48.2545 48.7365V50.484H48.2517ZM48.2517 52.4831C48.2517 52.7928 48.271 53.2324 48.4614 53.4205C48.6519 53.6195 48.95 53.661 49.248 53.661C50.1367 53.661 50.8129 53.3154 50.8129 52.4555C50.8129 51.7753 50.4127 50.9817 48.8285 50.9817C48.2903 50.9817 48.2489 51.0342 48.2489 51.2057V52.4804L48.2517 52.4831Z" fill="white"/>
<path d="M31.1815 45.7198L30.9442 45.7005C30.8972 45.6949 30.8531 45.6894 30.8144 45.6839C30.4694 45.623 30.3314 45.3134 30.1686 45.0286L29.3517 43.6018C29.2109 43.364 29.0591 43.0433 28.7362 42.999C29.5725 42.8995 30.3287 42.4129 30.3287 41.5834C30.3287 40.6239 29.3793 40.1953 28.4216 40.1953C27.8475 40.1953 27.3231 40.2119 26.738 40.2119C26.4151 40.2119 26.0315 40.1953 25.7086 40.1953C25.5292 40.1953 25.5264 40.2313 25.5264 40.3336C25.5264 40.4829 25.5899 40.4414 25.7776 40.4497C26.4593 40.4884 26.4317 40.6156 26.4317 41.199V44.9373C26.4317 45.471 26.4786 45.6313 25.9183 45.6811C25.9183 45.6811 25.8328 45.6894 25.7831 45.6949L25.5457 45.7198C25.4878 45.7696 25.5071 45.9078 25.5651 45.9327C25.692 45.9272 25.9156 45.9189 25.9156 45.9189C26.2247 45.9106 26.5366 45.8857 26.8457 45.8857C27.1548 45.8857 27.4556 45.9106 27.762 45.9189C27.8724 45.9244 27.9855 45.9272 28.1125 45.9327C28.1704 45.9078 28.187 45.7696 28.1318 45.7198L27.8917 45.6977C27.842 45.6922 27.7592 45.6839 27.7592 45.6839C27.1934 45.6452 27.2265 45.4848 27.2265 44.9373V43.5299C27.2265 43.447 27.2155 43.2285 27.2762 43.1649C27.3259 43.1096 27.417 43.1179 27.497 43.1179C28.2643 43.1179 28.2532 43.1898 28.6175 43.8313L29.6056 45.6147C29.6856 45.753 29.7463 45.9244 29.9478 45.9244H30.8062C30.9138 45.9272 31.0297 45.93 31.1539 45.9355C31.2119 45.9106 31.2284 45.7751 31.1732 45.7226L31.1815 45.7198ZM27.7371 42.9189C27.566 42.9189 27.221 42.9824 27.221 42.7557V41.1188C27.221 40.4801 27.2431 40.3889 28.0076 40.3889C28.9046 40.3889 29.4593 40.8451 29.4593 41.6857C29.4593 42.0506 29.3268 42.388 28.9956 42.6175C28.612 42.8829 28.198 42.9189 27.7344 42.9189H27.7371Z" fill="white"/>
<path d="M27.9222 49.5634C27.9222 48.6675 27.9029 48.532 27.3151 48.4878L27.0805 48.4712C27.0253 48.438 27.0418 48.2832 27.0998 48.2583C27.6242 48.2749 27.9416 48.2832 28.3169 48.2832C28.6923 48.2832 29.0014 48.2749 29.4678 48.2583C29.523 48.2832 29.5423 48.438 29.4871 48.4712L29.2636 48.4878C28.7116 48.5293 28.6923 48.6675 28.6923 49.5634V52.5302C28.6923 53.0667 28.7199 53.2879 28.8882 53.451C28.9903 53.545 29.1697 53.6473 29.9094 53.6473C30.7042 53.6473 30.903 53.6141 31.052 53.5367C31.2397 53.4344 31.4825 53.1275 31.6702 52.6934C31.7254 52.6519 31.9048 52.6851 31.9048 52.7459C31.9048 52.8399 31.6426 53.7109 31.5129 53.9404C31.0354 53.9238 30.1467 53.9155 29.1808 53.9155H28.3197C27.9278 53.9155 27.6269 53.9238 27.1025 53.9404C27.0473 53.9155 27.028 53.7773 27.0832 53.7275L27.3647 53.7026C27.9084 53.6501 27.9278 53.5312 27.9278 52.6353V49.5662L27.9222 49.5634Z" fill="white"/>
<path d="M53.0071 49.58C53.0071 48.6758 52.9878 48.532 52.4469 48.4878L52.2178 48.4712C52.1626 48.438 52.1819 48.2832 52.2371 48.2583C52.698 48.2749 53.0099 48.2832 53.3963 48.2832C53.7827 48.2832 54.078 48.2749 54.5361 48.2583C54.5913 48.2832 54.6107 48.438 54.5555 48.4712L54.3264 48.4878C53.7854 48.5293 53.7661 48.6758 53.7661 49.58V52.616C53.7661 53.5201 53.7854 53.639 54.3264 53.6999L54.5555 53.7247C54.6107 53.7579 54.5913 53.9128 54.5361 53.9376C54.0752 53.9211 53.7634 53.9128 53.3963 53.9128C53.0099 53.9128 52.698 53.9211 52.2371 53.9376C52.1819 53.9128 52.1626 53.7745 52.2178 53.7247L52.4469 53.6999C52.9906 53.6418 53.0071 53.5201 53.0071 52.616V49.58Z" fill="white"/>
<path d="M45.6602 53.6969C45.6133 53.6914 45.5249 53.6831 45.5249 53.6831C45.4283 53.672 45.34 53.661 45.271 53.5835C45.1524 53.4564 45.1606 53.0941 45.1606 52.9504V49.2121C45.1606 49.0489 45.122 48.6978 45.2407 48.5706C45.3014 48.5042 45.4256 48.4932 45.536 48.4849C45.6022 48.4793 45.605 48.4793 45.6629 48.4766L45.9003 48.46C45.9583 48.4268 45.9389 48.272 45.881 48.2471C45.754 48.2526 45.6409 48.2498 45.5305 48.2526H44.5259C44.4155 48.2526 44.3161 48.2526 44.2581 48.3715L42.2103 52.6434L40.4025 48.518C40.3418 48.3715 40.3335 48.2554 40.1431 48.2554H39.0971C38.9894 48.2526 38.868 48.2554 38.741 48.2498C38.6831 48.2747 38.6665 48.4296 38.7217 48.4627L38.9563 48.4793C39.006 48.4821 39.0943 48.4904 39.0943 48.4904C39.4862 48.5153 39.5111 48.6038 39.4752 49.0157L39.1688 53.025C39.1412 53.4259 39.1192 53.6388 38.6997 53.6803C38.6997 53.6803 38.6113 53.6914 38.5617 53.6969L38.3243 53.7218C38.2663 53.7716 38.2857 53.9098 38.3436 53.9347C38.4678 53.9292 38.6886 53.9236 38.6886 53.9236C38.9011 53.9126 39.1192 53.8932 39.3372 53.8932C39.5718 53.8932 39.8064 53.9154 40.041 53.9236C40.1486 53.9264 40.2645 53.9319 40.3915 53.9347C40.4467 53.9098 40.466 53.7743 40.4108 53.7218L40.1735 53.6969C40.11 53.6914 40.041 53.6859 40.041 53.6859C39.4338 53.6444 39.4476 53.2158 39.4862 52.6904L39.7733 48.9632H39.8423L41.799 53.5504C41.8184 53.614 41.8487 53.7218 41.9481 53.7218C42.0392 53.7218 42.0668 53.6223 42.0971 53.5587L44.3023 48.8526H44.3713V52.9531C44.3713 53.1163 44.3906 53.4508 44.2223 53.578C44.1339 53.6444 43.8469 53.6831 43.8469 53.6831C43.8083 53.6886 43.7669 53.6941 43.72 53.6997L43.4826 53.7246C43.4246 53.7743 43.444 53.9126 43.5019 53.9375C43.6261 53.9347 43.8469 53.9264 43.8469 53.9264C44.1671 53.9181 44.4927 53.8932 44.8184 53.8932C45.053 53.8932 45.5111 53.9154 45.5111 53.9154C45.6188 53.9181 45.7457 53.9292 45.8699 53.9347C45.9279 53.9098 45.9445 53.7716 45.8893 53.7218L45.6547 53.6969H45.6602Z" fill="white"/>
<path d="M61.0138 53.7219L60.9835 53.697C60.9365 53.6915 60.8951 53.686 60.8537 53.6804C60.4867 53.5975 60.3431 53.1523 60.2052 52.8371L58.3118 48.344C58.2925 48.2914 58.2566 48.1753 58.1794 48.1753C58.0772 48.1753 58.0469 48.2997 58.0193 48.3716L56.2088 52.8537C56.1425 53.0224 55.9742 53.4344 55.8527 53.5588C55.7589 53.6556 55.6375 53.6721 55.5078 53.686C55.5078 53.686 55.4056 53.697 55.356 53.6998L55.1324 53.7219C55.0744 53.7717 55.0938 53.9099 55.1517 53.9348C55.2787 53.9321 55.5022 53.9238 55.5022 53.9238C55.7506 53.921 55.9963 53.8906 56.2447 53.8906C56.4517 53.8906 56.6614 53.9127 56.8712 53.921C56.8712 53.921 57.0947 53.9293 57.2217 53.9348C57.2796 53.9099 57.2962 53.7717 57.241 53.7219L57.0036 53.697C56.9567 53.6915 56.8767 53.6832 56.8767 53.6832C56.6586 53.6583 56.3882 53.6196 56.3882 53.3818C56.3882 53.2214 56.4627 53.0334 56.5206 52.8896L56.8022 52.2177C56.9429 51.897 56.8877 51.8583 57.2603 51.8583H58.5354C58.9853 51.8583 58.919 51.8583 59.1177 52.3145L59.4186 52.9947C59.4655 53.1108 59.551 53.3072 59.551 53.4344C59.551 53.6583 59.3054 53.6749 59.0763 53.6943C59.0763 53.6943 59.0018 53.6998 58.9356 53.7053L58.7093 53.7219C58.6513 53.7717 58.6706 53.9099 58.7286 53.9348C58.8555 53.9293 59.0791 53.921 59.0791 53.921C59.3468 53.9099 59.6145 53.8906 59.8712 53.8906C60.1996 53.8906 60.5281 53.9127 60.8565 53.921C60.9641 53.9238 60.8731 53.9293 60.9972 53.9321C61.0552 53.9072 61.0718 53.7689 61.0166 53.7191L61.0138 53.7219ZM58.5326 51.6094H57.4287C57.39 51.6094 57.0837 51.6454 57.0837 51.5541C57.0837 51.5265 57.103 51.474 57.1113 51.4463L57.7737 49.8011C57.793 49.7569 57.8592 49.5302 57.9365 49.5302C57.9944 49.5302 58.0717 49.7652 58.091 49.8011L58.7452 51.3385C58.7452 51.3578 58.8114 51.5016 58.8114 51.5376C58.8114 51.6371 58.5906 51.6094 58.5326 51.6094Z" fill="white"/>
<path d="M24.0941 34.2811C30.0776 34.2811 38.3547 37.6572 44.3602 37.6572C48.6464 37.6572 52.8277 36.5125 55.2095 34.8231C55.3751 33.8332 55.4634 32.8157 55.4634 31.776C55.4634 21.7003 47.3106 13.5325 37.2534 13.5325C27.1963 13.5325 19.0435 21.7003 19.0435 31.776C19.0435 32.8019 19.129 33.8083 19.2919 34.7871C19.9487 34.6655 22.1787 34.2784 24.0914 34.2784L24.0941 34.2811Z" fill="white"/>
<path d="M49.019 27.5593L49.7394 27.858L51.3346 26.7437L49.019 27.5593Z" fill="#E3A82B"/>
<path d="M22.1897 26.3123L20.2964 25.646L20.3903 25.4137L22.5209 26.1271L22.5292 26.1215L22.8107 25.9612L22.9239 25.892L20.6 24.9022L20.6994 24.6588L25.888 26.7603L26.0591 26.6884L20.9146 24.1777L21.0306 23.9427L26.4814 26.4838L26.5559 26.445L21.2707 23.4422L21.3783 23.2155L29.0123 27.3769C29.0757 27.2607 29.2055 27.0506 29.2745 26.9372C26.371 24.2026 23.5724 22.151 23.5724 22.151C23.5724 22.151 26.4538 24.0837 30.0086 25.881C30.1273 25.7344 30.2211 25.6155 30.3481 25.4773L23.8346 19.7344L24.0085 19.5546L29.2662 24.0422L24.3977 19.1565L24.5798 18.9684L30.0472 24.2607L24.9579 18.6007L25.1539 18.4237L29.8568 23.4699L25.5651 18.0505L25.75 17.8818L31.2533 24.5925C31.3941 24.4681 31.5128 24.3768 31.6618 24.2634C29.9976 20.6551 28.1788 17.7187 28.1788 17.7187C28.1788 17.7187 30.1135 20.5721 32.7244 23.5611C32.8844 23.4726 33.0445 23.3842 33.2101 23.304L33.1825 23.2846L29.3269 15.573L29.556 15.4707L32.752 21.6035L30.0638 15.2467L30.3039 15.1389L33.395 22.0984L30.7924 14.9426L31.038 14.8513L33.5137 21.2966L31.5597 14.6605L31.7943 14.5748L34.3665 22.8063L34.361 22.8284H34.3665C34.5376 22.7676 34.7115 22.7178 34.8854 22.6708C34.6894 18.7168 34.1071 15.3352 34.1071 15.3352C34.1071 15.3352 34.8302 18.6864 36.1246 22.4247C36.304 22.4026 36.4861 22.3832 36.6711 22.3722L36.6655 22.3639H36.6876L36.6738 22.3445L35.9811 13.7481L36.2322 13.7398L36.9001 20.6275L36.7842 13.7232L37.0464 13.7149L37.3086 21.327L37.5708 13.7149L37.833 13.7232L37.7171 20.6275L38.385 13.7398L38.6361 13.7481L37.9434 22.3445L37.9296 22.3639H37.9323H37.9434C38.1228 22.3749 38.2994 22.3943 38.476 22.4137C39.7704 18.6809 40.4908 15.3324 40.4908 15.3324C40.4908 15.3324 39.9084 18.703 39.7125 22.6487C39.8891 22.6957 40.063 22.7482 40.2369 22.8035L42.8008 14.6025L43.0354 14.6882L41.0814 21.3242L43.5571 14.8818L43.8027 14.973L41.2001 22.1289L44.2884 15.1693L44.5286 15.2771L41.8404 21.6339L45.0364 15.5011L45.2655 15.6034L41.4236 23.2874H41.4292C41.5865 23.3676 41.7438 23.4505 41.8956 23.5362C44.4954 20.5583 46.4191 17.7214 46.4191 17.7214C46.4191 17.7214 44.6141 20.6357 42.9526 24.2275C43.1017 24.3409 43.2452 24.457 43.386 24.5759L48.823 17.9399L49.0079 18.1085L44.7135 23.528L49.4164 18.4818L49.6096 18.6588L44.5203 24.3187L49.9877 19.0237L50.1698 19.2145L45.3013 24.1003L50.5562 19.6127L50.7301 19.7924L44.2967 25.4718H44.2995C44.4126 25.6017 44.5203 25.7317 44.6252 25.8616C48.1579 24.0727 51.0116 22.1565 51.0116 22.1565C51.0116 22.1565 48.2379 24.1888 45.351 26.904C45.4311 27.0368 45.558 27.2635 45.6298 27.399L53.1561 23.2929L53.2665 23.5197L47.2581 26.9317L53.5066 24.0174L53.6225 24.2524L47.8018 27.0921L47.915 27.1308L53.8378 24.7307L53.9371 24.9741L48.4339 27.3188L48.536 27.3603L52.2039 26.1354L52.7559 25.7483L52.938 25.8893L54.1441 25.4856L54.238 25.7178L53.1947 26.0856L54.7044 27.2386L55.1874 27.5096C53.2472 19.386 45.9527 13.3472 37.2506 13.3472C28.5486 13.3472 20.9974 19.6016 19.2173 27.9409C19.2394 27.9299 19.2614 27.9188 19.2863 27.9077L19.5071 27.8082L19.6423 27.7446L22.187 26.3151L22.1897 26.3123Z" fill="#E3A82B"/>
<path d="M19.1154 35.1826C19.1154 35.1826 21.8366 34.6379 24.1081 34.6379C30.0916 34.6379 38.3686 38.014 44.3742 38.014C48.779 38.014 53.0762 36.8029 55.4194 35.0388C55.6016 33.9937 55.6982 32.9208 55.6982 31.8231C55.6982 30.3383 55.5215 28.8922 55.1903 27.5097L52.6871 26.1106L49.7505 28.1761L47.7744 27.4046C47.1065 27.742 42.9777 30.5097 42.9777 30.5097L41.3935 29.3623L39.6934 29.0249L37.4275 27.3714L34.8276 29.1604C34.8276 29.1604 31.9269 30.8471 31.8276 30.8471C31.7282 30.8471 28.328 28.1484 28.328 28.1484L26.7631 26.4949C26.4954 26.6636 25.4301 27.153 25.4301 27.153L25.3749 27.1668L24.3454 26.8461L23.0924 26.1797L19.2892 27.9079C19.2672 27.9189 19.2451 27.93 19.2202 27.941C18.9525 29.1936 18.8118 30.4931 18.8118 31.8259C18.8118 32.9734 18.9166 34.096 19.1181 35.1854L19.1154 35.1826Z" fill="#7B8CAC"/>
<path d="M68.5345 13.2671H68.1067V53.9487H68.5345V13.2671Z" fill="#E3A82B"/>
</svg>
