<?xml version="1.0" encoding="UTF-8"?>
<svg id="Ministry_Type" data-name="Ministry Type" xmlns="http://www.w3.org/2000/svg" viewBox="0 0 317.12 349.49">
  <defs>
    <style>
      .cls-1 {
        fill: #fff;
      }

      .cls-2 {
        fill: none;
      }

      .cls-3 {
        fill: #e3a82b;
      }

      .cls-4 {
        fill: #7b8cac;
      }
    </style>
  </defs>
  <g>
    <path class="cls-1" d="M96.3,147.99c0-2.68-.19-3.39-1.99-3.53l-1.26-.09c-.21-.16-.15-.89.04-.9,2.17-.19,4.89-.29,8.63-.29,2.53,0,4.94.18,6.74,1.01,1.73.76,3.05,2.2,3.05,4.52,0,2.6-1.69,3.94-4.09,4.95,0,.36.32.47.76.54,2.17.36,5.38,2.17,5.38,6.04,0,4.2-3.45,7.02-10.68,7.02-1.16,0-3.13-.11-4.81-.11s-3.13.07-4.62.11c-.24-.11-.32-.69-.08-.91l.72-.11c2.13-.32,2.21-.73,2.21-4.52v-13.74ZM99.59,152.79c0,1.01.04,1.09,2.09,1.01,4.09-.15,6.3-1.23,6.3-4.63s-2.93-4.88-5.98-4.88c-.88,0-1.48.07-1.85.22-.4.11-.56.29-.56.94v7.34ZM99.59,161.18c0,1.3.08,3.14.84,3.94.76.83,1.97,1.01,3.17,1.01,3.57,0,6.3-1.44,6.3-5.06,0-2.85-1.6-6.18-7.99-6.18-2.17,0-2.33.22-2.33.94v5.35Z"/>
    <path class="cls-1" d="M141.45,151.55c0-3.27-.07-3.8-2.09-3.95l-.86-.06c-.21-.12-.14-.68.07-.77,1.71.06,2.88.09,4.32.09s2.54-.03,4.25-.09c.21.09.27.65.07.77l-.86.06c-2.02.15-2.09.68-2.09,3.95v10.99c0,3.27.07,3.71,2.09,3.92l.86.09c.2.12.14.68-.07.77-1.71-.06-2.88-.09-4.25-.09-1.44,0-2.61.03-4.32.09-.21-.09-.27-.59-.07-.77l.86-.09c2.02-.22,2.09-.65,2.09-3.92v-10.99Z"/>
    <path class="cls-1" d="M160.46,162.6c0,3.25.07,3.71,1.92,3.86l1.03.09c.19.12.13.68-.07.77-1.83-.06-2.92-.09-4.21-.09s-2.41.03-4.46.09c-.19-.09-.26-.62,0-.77l1.16-.09c1.83-.15,1.99-.62,1.99-3.86v-13.8c0-.96,0-.99-.96-.99h-1.77c-1.38,0-3.15.06-3.95.77-.77.68-1.09,1.36-1.44,2.13-.26.19-.71.03-.84-.22.51-1.39,1-3.36,1.22-4.6.1-.06.51-.09.61,0,.19.99,1.25.96,2.73.96h13c1.74,0,2.02-.06,2.5-.86.16-.06.51-.03.58.09-.35,1.27-.58,3.77-.48,4.7-.13.25-.67.25-.83.06-.1-.77-.32-1.92-.8-2.26-.74-.52-1.96-.77-3.73-.77h-2.28c-.97,0-.93.03-.93,1.05v13.74Z"/>
    <path class="cls-1" d="M174.23,151.55c0-3.27-.07-3.8-2.09-3.95l-.86-.06c-.21-.12-.14-.68.07-.77,1.71.06,2.88.09,4.32.09s2.54-.03,4.25-.09c.21.09.27.65.07.77l-.86.06c-2.02.15-2.09.68-2.09,3.95v10.99c0,3.27.07,3.71,2.09,3.92l.86.09c.2.12.14.68-.07.77-1.71-.06-2.88-.09-4.25-.09-1.44,0-2.6.03-4.32.09-.21-.09-.27-.59-.07-.77l.86-.09c2.02-.22,2.09-.65,2.09-3.92v-10.99Z"/>
    <path class="cls-1" d="M189.59,167.64c-3.06,0-4.99-.8-5.68-1.14-.44-.68-.91-2.87-.99-4.32.19-.22.73-.28.88-.09.55,1.58,2.04,4.6,6.27,4.6,3.06,0,4.56-1.7,4.56-3.55,0-1.36-.33-2.87-2.99-4.32l-3.46-1.91c-1.82-1.02-3.94-2.78-3.94-5.31,0-2.94,2.7-5.31,7.43-5.31,1.13,0,2.44.19,3.39.4.47.12.98.19,1.27.19.33.74.66,2.47.66,3.77-.14.18-.73.28-.91.09-.47-1.48-1.46-3.49-4.96-3.49s-4.33,2.01-4.33,3.43c0,1.79,1.75,3.09,3.1,3.8l2.92,1.54c2.3,1.2,4.55,2.99,4.55,5.93,0,3.4-3.02,5.71-7.76,5.71Z"/>
    <path class="cls-1" d="M207.93,157.26c-1.59,0-1.66.06-1.66.99v4.35c0,3.25.17,3.68,2.02,3.86l.97.09c.2.12.13.68-.07.77-1.79-.06-2.92-.09-4.22-.09-1.43,0-2.56.06-3.86.09-.2-.09-.26-.59-.07-.77l.56-.09c1.86-.31,1.92-.62,1.92-3.86v-11.12c0-3.24-.23-3.77-1.96-3.89l-.87-.06c-.2-.12-.13-.68.07-.77,1.63.03,2.76.09,4.19.09,1.3,0,2.43-.03,3.85-.09.2.09.27.65.07.77l-.63.06c-1.93.18-1.99.65-1.99,3.89v3.55c0,.96.07.99,1.66.99h9.5c1.59,0,1.66-.03,1.66-.99v-3.55c0-3.24-.07-3.71-2.03-3.89l-.63-.06c-.2-.12-.13-.68.07-.77,1.53.06,2.66.09,4.02.09s2.43-.03,3.92-.09c.2.09.27.65.07.77l-.7.06c-1.92.18-1.99.65-1.99,3.89v11.12c0,3.25.07,3.65,1.99,3.86l.8.09c.2.12.13.68-.07.77-1.59-.06-2.72-.09-4.02-.09-1.36,0-2.56.03-4.02.09-.2-.09-.26-.59-.07-.77l.63-.09c2.03-.31,2.03-.62,2.03-3.86v-4.35c0-.93-.07-.99-1.66-.99h-9.5Z"/>
    <path class="cls-1" d="M77.28,174.11c2.73-2.13,6.21-3.17,10.1-3.17,2.02,0,4.86.41,6.62.9.45.11.71.19,1.05.15.04.86.23,3.21.52,5.48-.19.26-.75.3-1.01.07-.56-2.54-2.25-5.45-7.67-5.45-5.72,0-10.59,3.62-10.59,11.34s4.98,12.15,11.11,12.15c4.83,0,6.96-3.13,7.82-5.33.26-.19.82-.11.97.15-.26,1.94-1.23,4.4-1.8,5.11-.45.07-.9.22-1.31.37-.82.3-3.52.86-5.91.86-3.37,0-6.59-.67-9.32-2.5-2.99-2.05-5.31-5.44-5.31-10.25,0-4.14,1.87-7.68,4.71-9.88Z"/>
    <path class="cls-1" d="M97.74,186.17c0-6.17,4.86-10.9,11.54-10.9,7.49,0,11.25,5.16,11.25,10.59,0,6.24-4.99,10.78-11.25,10.78-7.2,0-11.54-4.91-11.54-10.47ZM117.29,186.82c0-5.1-2.37-10.59-8.56-10.59-3.37,0-7.75,2.19-7.75,8.96,0,4.57,2.33,10.5,8.72,10.5,3.89,0,7.59-2.78,7.59-8.86Z"/>
    <path class="cls-1" d="M157.12,183.52c0-1.91-.07-5.47-.62-6.39-.23-.37-.82-.59-1.64-.65l-.82-.06c-.2-.22-.13-.62.07-.74,1.24.06,2.46.1,3.73.1,1.37,0,2.26-.03,3.44-.1.26.16.23.56.07.74l-.78.06c-.82.06-1.44.34-1.64.74-.46,1.02-.46,4.57-.46,6.3v3.49c0,2.69-.46,5.53-2.29,7.38-1.41,1.45-3.83,2.25-6.25,2.25-2.26,0-4.52-.4-6.12-1.7-1.74-1.36-2.55-3.61-2.55-7.29v-7.29c0-3.21-.07-3.74-1.96-3.89l-.82-.06c-.2-.12-.13-.65.06-.74,1.64.06,2.75.1,4.06.1s2.42-.03,4.03-.1c.2.1.26.62.07.74l-.79.06c-1.9.15-1.96.68-1.96,3.89v6.67c0,4.97,1.64,8.25,6.65,8.25,4.75,0,6.55-3.52,6.55-8.22v-3.55Z"/>
    <path class="cls-1" d="M195.17,179.66c0-2.31-.15-2.9-1.77-3.03l-1.16-.11c-.13-.12-.2-.75.03-.76,1.96-.15,4.42-.25,7.78-.25,2.28,0,4.45.16,6.08.87,1.56.66,2.75,1.9,2.75,3.9,0,2.25-1.52,3.4-3.69,4.27,0,.31.29.41.69.47,1.96.31,4.85,1.87,4.85,5.21,0,3.62-3.12,6.05-9.63,6.05-1.05,0-2.82-.09-4.34-.09s-2.82.06-4.16.09c-.22-.09-.29-.59-.07-.78l.65-.09c1.92-.28,1.99-.62,1.99-3.9v-11.85ZM198.13,183.81c0,.87.03.94,1.88.87,3.69-.13,5.68-1.06,5.68-4s-2.64-4.21-5.39-4.21c-.8,0-1.34.06-1.67.19-.36.09-.51.25-.51.81v6.33ZM198.13,191.04c0,1.12.07,2.71.76,3.4.69.72,1.77.87,2.86.87,3.22,0,5.68-1.25,5.68-4.37,0-2.47-1.45-5.33-7.2-5.33-1.96,0-2.1.19-2.1.81v4.62Z"/>
    <rect class="cls-3" x="93.21" y="204.57" width="131.44" height="1.55"/>
    <path class="cls-1" d="M136.21,166.55l-.86-.07c-.17-.02-.33-.04-.47-.06-1.25-.22-1.76-1.34-2.35-2.38l-2.96-5.16c-.51-.86-1.06-2.02-2.23-2.18,3.04-.37,5.78-2.12,5.78-5.13,0-3.47-3.44-5.03-6.92-5.03-2.09,0-3.99.06-6.11.06-1.17,0-2.56-.06-3.73-.06-.65,0-.66.13-.66.49,0,.54.23.39.91.43,2.47.14,2.38.6,2.38,2.72v13.53c0,1.94.17,2.52-1.87,2.7,0,0-.31.03-.49.05l-.86.09c-.2.18-.14.68.07.77.46-.02,1.27-.05,1.27-.05,1.13-.03,2.25-.12,3.38-.12s2.22.09,3.33.12h0c.4.01.81.03,1.27.04.21-.09.27-.59.07-.77l-.87-.08c-.18-.02-.48-.05-.48-.05-2.05-.14-1.93-.72-1.93-2.7v-5.1c0-.3-.04-1.09.18-1.32.18-.2.51-.17.81-.17,2.78,0,2.74.26,4.06,2.58l3.59,6.45c.29.5.51,1.12,1.24,1.12h3.11c.39.01.81.03,1.26.04.21-.09.27-.59.07-.77ZM123.71,156.41c-.62,0-1.87.23-1.87-.6v-5.93c0-2.31.07-2.65,2.86-2.65,3.26,0,5.27,1.66,5.27,4.7,0,1.32-.48,2.55-1.68,3.38-1.39.96-2.89,1.09-4.58,1.09Z"/>
    <g>
      <path class="cls-1" d="M124.39,180.47c0-3.24-.07-3.74-2.21-3.89l-.85-.06c-.2-.12-.14-.68.07-.77,1.9.07,3.06.09,4.42.09s2.48-.03,4.18-.09c.2.09.27.65.07.77l-.81.06c-2,.15-2.07.65-2.07,3.89v10.75c0,1.94.1,2.75.71,3.33.37.34,1.02.71,3.7.71,2.89,0,3.6-.12,4.14-.4.68-.37,1.56-1.48,2.24-3.06.21-.15.85-.03.85.19,0,.34-.95,3.49-1.43,4.32-1.73-.06-4.96-.09-8.46-.09h-3.13c-1.43,0-2.51.03-4.42.09-.2-.09-.27-.59-.07-.77l1.02-.09c1.97-.18,2.04-.62,2.04-3.86v-11.12Z"/>
      <path class="cls-1" d="M215.39,180.53c0-3.27-.07-3.8-2.04-3.95l-.83-.06c-.2-.12-.13-.68.07-.77,1.67.07,2.8.09,4.2.09s2.47-.03,4.14-.09c.2.09.27.65.07.77l-.83.06c-1.97.15-2.03.68-2.03,3.95v11c0,3.27.07,3.71,2.03,3.92l.83.09c.2.12.14.68-.07.77-1.67-.06-2.8-.09-4.14-.09s-2.53.03-4.2.09c-.2-.09-.27-.59-.07-.77l.83-.09c1.97-.21,2.04-.65,2.04-3.92v-11Z"/>
      <path class="cls-1" d="M188.74,195.44c-.17-.02-.49-.04-.49-.04-.35-.04-.67-.09-.91-.36-.44-.46-.4-1.77-.4-2.29v-13.53c0-.59-.14-1.87.29-2.33.22-.24.67-.28,1.07-.31h0c.24-.02.25-.02.46-.03l.86-.06c.21-.12.13-.68-.07-.77-.46.02-.88.01-1.27.02h0s-3.64,0-3.64,0c-.4,0-.76,0-.98.42l-7.42,15.47-6.56-14.94c-.22-.52-.25-.95-.94-.95h-3.79c-.4-.01-.83-.01-1.29-.03-.21.09-.27.65-.07.77l.86.06c.18.01.5.03.5.03,1.42.09,1.51.41,1.38,1.91l-1.12,14.51c-.1,1.46-.18,2.23-1.7,2.37,0,0-.32.04-.5.06l-.86.09c-.21.19-.14.68.07.77.45-.02,1.25-.04,1.25-.04.77-.04,1.56-.11,2.35-.11.85,0,1.7.08,2.55.12h0c.4.01.81.03,1.27.04.21-.09.27-.59.07-.77l-.86-.09c-.22-.02-.48-.04-.48-.04-2.2-.15-2.15-1.71-2.02-3.61l1.05-13.5h.25l7.1,16.61c.07.23.18.62.54.62.33,0,.43-.36.54-.59l8.01-17.04h.25v14.84c0,.59.07,1.8-.54,2.26-.32.24-1.36.38-1.36.38-.14.02-.3.04-.46.06l-.86.09c-.21.19-.14.68.07.77.45-.02,1.25-.04,1.25-.04,1.16-.03,2.34-.12,3.52-.12.85,0,2.51.08,2.51.08.4.01.85.05,1.31.07.2-.09.27-.59.07-.77l-.86-.09Z"/>
      <path class="cls-1" d="M244.43,195.53l-.11-.09c-.17-.02-.32-.04-.47-.06-1.33-.3-1.86-1.91-2.35-3.05l-6.87-16.27c-.07-.2-.21-.62-.48-.62-.37,0-.48.46-.58.71l-6.57,16.23c-.24.62-.85,2.11-1.3,2.56-.34.35-.78.41-1.25.46,0,0-.37.04-.55.06l-.81.08c-.21.19-.14.68.07.77.46-.02,1.27-.04,1.27-.04.9-.01,1.8-.13,2.7-.13.76,0,1.51.08,2.27.12,0,0,.81.03,1.27.04.21-.09.27-.59.07-.77l-.86-.09c-.17-.02-.47-.05-.47-.05-.79-.09-1.77-.23-1.77-1.1,0-.58.27-1.26.47-1.78l1.02-2.43c.51-1.17.31-1.3,1.67-1.3h4.63c1.64,0,1.39,0,2.11,1.65l1.09,2.46c.17.42.47,1.14.47,1.59,0,.81-.89.87-1.72.94,0,0-.27.02-.52.04l-.82.06c-.21.18-.14.68.07.77.46-.02,1.27-.05,1.27-.05.97-.04,1.94-.11,2.88-.11,1.19,0,2.38.08,3.57.12h0c.4.01.06.03.51.04.21-.09.28-.59.07-.77ZM235.43,187.88h-4.01c-.14,0-1.25.13-1.25-.2,0-.1.07-.3.1-.39l2.41-5.96c.07-.16.31-.98.59-.98.21,0,.49.85.56.98l2.37,5.57c0,.07.24.59.24.72,0,.36-.8.26-1.01.26Z"/>
    </g>
  </g>
  <path class="cls-1" d="M110.81,125.13c21.71,0,51.74,12.22,73.53,12.22,15.55,0,30.72-4.15,39.36-10.26.6-3.59.92-7.27.92-11.03,0-36.49-29.58-66.07-66.06-66.07s-66.06,29.58-66.06,66.07c0,3.72.31,7.36.9,10.91,2.38-.44,10.48-1.84,17.42-1.84Z"/>
  <g>
    <polygon class="cls-3" points="201.42 100.79 204.03 101.87 209.82 97.83 201.42 100.79"/>
    <path class="cls-3" d="M104.08,96.27l-6.87-2.41.34-.84,7.73,2.58.03-.02,1.02-.58.41-.26-8.43-3.59.36-.88,18.82,7.61.62-.26-18.67-9.1.42-.85,19.78,9.2.27-.14-19.18-10.88.39-.82,27.69,15.07c.23-.42.7-1.18.95-1.59-10.53-9.9-20.69-17.33-20.69-17.33,0,0,10.45,7,23.35,13.5.43-.53.78-.96,1.23-1.46l-23.63-20.8.63-.65,19.07,16.25-17.67-17.69.66-.68,19.84,19.17-18.46-20.49.71-.64,17.07,18.28-15.58-19.63.67-.61,19.97,24.3c.52-.45.94-.78,1.49-1.19-6.04-13.07-12.64-23.7-12.64-23.7,0,0,7.02,10.33,16.49,21.16.58-.33,1.16-.64,1.76-.93l-.1-.07-13.99-27.93.83-.37,11.59,22.21-9.75-23.02.87-.39,11.21,25.2-9.44-25.92.89-.33,8.98,23.34-7.09-24.03.85-.31,9.33,29.81-.02.08h.02c.62-.22,1.25-.4,1.89-.57-.71-14.32-2.83-26.57-2.83-26.57,0,0,2.62,12.14,7.32,25.67.66-.08,1.31-.15,1.98-.19l-.02-.03h.08l-.05-.07-2.51-31.13.91-.03,2.43,24.94-.42-25,.95-.03.95,27.57.95-27.57.95.03-.42,25,2.43-24.94.91.03-2.52,31.13-.05.07h.02-.01s.04,0,.04,0c.65.04,1.3.11,1.93.18,4.7-13.52,7.32-25.64,7.32-25.64,0,0-2.11,12.21-2.82,26.5.64.17,1.27.36,1.9.56l9.3-29.7.86.31-7.09,24.03,8.98-23.34.89.33-9.44,25.92,11.21-25.2.87.39-9.75,23.02,11.59-22.21.83.37-13.94,27.82h.02c.57.29,1.13.59,1.69.9,9.43-10.79,16.41-21.06,16.41-21.06,0,0-6.55,10.56-12.58,23.56.54.41,1.07.83,1.58,1.26l19.73-24.03.67.61-15.58,19.63,17.07-18.27.7.64-18.47,20.49,19.84-19.17.66.68-17.67,17.69,19.07-16.25.64.65-23.34,20.57h.01c.41.47.79.94,1.18,1.41,12.82-6.48,23.17-13.41,23.17-13.41,0,0-10.06,7.36-20.53,17.19.29.48.75,1.3,1.01,1.79l27.3-14.87.39.82-21.79,12.36,22.67-10.55.42.85-21.12,10.29.4.14,21.49-8.69.36.88-19.97,8.49.37.16,13.3-4.44,2.01-1.4.66.51,4.38-1.46.34.84-3.79,1.33,5.47,4.18,1.75.98c-7.04-29.42-33.5-51.29-65.07-51.29s-58.97,22.65-65.43,52.85c.08-.04.16-.08.25-.12l.8-.36.49-.23,9.23-5.18Z"/>
  </g>
  <path class="cls-4" d="M92.75,128.4s9.87-1.97,18.11-1.97c21.71,0,51.74,12.23,73.53,12.23,15.99,0,31.58-4.38,40.07-10.78.66-3.78,1.01-7.67,1.01-11.65,0-5.38-.64-10.61-1.84-15.62l-9.09-5.07-10.66,7.47-7.17-2.79c-2.43,1.23-17.4,11.24-17.4,11.24l-5.75-4.16-6.17-1.22-8.22-5.99-9.43,6.47s-10.52,6.11-10.89,6.11-12.7-9.78-12.7-9.78l-5.68-5.99c-.97.61-4.83,2.39-4.83,2.39l-.2.05-3.74-1.16-4.54-2.41-13.8,6.26c-.08.04-.16.08-.25.12-.97,4.54-1.49,9.24-1.49,14.07,0,4.16.38,8.22,1.11,12.17Z"/>
  <g>
    <path class="cls-1" d="M106.44,227.31c.73,1.49,1.42,2.95,2.18,4.34h.06c.86-1.49,1.65-3.13,2.44-4.75l2.98-6.05c1.42-2.88,2.34-4.62,2.41-6.08,1.08.1,1.74.1,2.37.1.79,0,1.84-.03,2.82-.1.19.13.19.67.03.79l-.67.06c-1.99.19-2.25.79-2.22,3.01.06,3.36.09,9.21.35,13.77.1,1.58.06,2.44,1.55,2.56l1.01.1c.19.19.16.67-.06.79-1.3-.06-2.6-.09-3.74-.09s-2.53.03-3.83.09c-.22-.16-.25-.6-.06-.79l.92-.1c1.55-.16,1.55-.66,1.55-2.69l-.09-13.2h-.06c-.22.35-1.42,2.88-2.06,4.12l-2.82,5.54c-1.42,2.79-2.85,5.76-3.42,7.22-.06.09-.19.13-.32.13-.06,0-.22-.03-.29-.13-.54-1.68-2.06-4.78-2.79-6.33l-2.85-6.11c-.67-1.46-1.33-3.1-2.03-4.56h-.06c-.13,1.96-.22,3.8-.32,5.64-.09,1.93-.22,4.75-.22,7.44,0,2.34.19,2.85,1.42,2.94l1.2.1c.22.19.19.7-.03.79-1.08-.06-2.31-.09-3.51-.09-1.01,0-2.15.03-3.23.09-.19-.16-.25-.63-.06-.79l.7-.1c1.33-.19,1.77-.38,1.96-2.6.19-2.09.35-3.83.54-6.97.16-2.63.28-5.32.35-7.06.06-2-.19-2.47-2.12-2.72l-.51-.06c-.16-.19-.13-.67.13-.79.95.06,1.71.1,2.5.1.73,0,1.58,0,2.63-.1-.13,1.24.67,3.2,1.65,5.22l3.61,7.31Z"/>
    <path class="cls-1" d="M125.83,226.68c0-1.24,0-1.39-.86-1.96l-.29-.19c-.13-.13-.13-.47.03-.57.73-.25,2.53-1.08,3.26-1.55.16,0,.29.06.32.19-.06,1.11-.13,2.63-.13,3.93v5.7c0,2.28.06,2.6,1.2,2.75l.67.1c.22.16.16.7-.06.79-.95-.06-1.87-.09-2.98-.09s-2.09.03-2.98.09c-.22-.09-.29-.63-.06-.79l.67-.1c1.17-.16,1.2-.47,1.2-2.75v-5.54ZM128.46,217.66c0,1.14-.79,1.65-1.68,1.65-.98,0-1.61-.73-1.61-1.58,0-1.04.76-1.71,1.71-1.71s1.58.76,1.58,1.65Z"/>
    <path class="cls-1" d="M133.69,226.68c0-1.24,0-1.39-.85-1.96l-.29-.19c-.13-.13-.13-.47.03-.57.73-.25,2.53-1.08,3.17-1.55.13,0,.28.06.35.22-.06.73-.06,1.2-.06,1.49,0,.19.13.35.35.35,1.33-.82,2.82-1.61,4.43-1.61,2.63,0,3.7,1.8,3.7,3.93v5.45c0,2.28.06,2.6,1.2,2.75l.7.1c.22.16.16.7-.06.79-.95-.06-1.87-.09-2.98-.09s-2.09.03-2.94.09c-.22-.09-.29-.63-.06-.79l.6-.1c1.17-.19,1.2-.47,1.2-2.75v-4.72c0-1.8-.82-3.13-2.98-3.13-1.2,0-2.25.51-2.69,1.11-.41.54-.48.98-.48,1.9v4.84c0,2.28.06,2.56,1.2,2.75l.57.1c.22.16.16.7-.06.79-.85-.06-1.77-.09-2.88-.09s-2.09.03-2.98.09c-.22-.09-.29-.63-.06-.79l.67-.1c1.17-.16,1.2-.47,1.2-2.75v-5.54Z"/>
    <path class="cls-1" d="M150.07,226.68c0-1.24,0-1.39-.86-1.96l-.29-.19c-.13-.13-.13-.47.03-.57.73-.25,2.53-1.08,3.26-1.55.16,0,.29.06.32.19-.06,1.11-.13,2.63-.13,3.93v5.7c0,2.28.06,2.6,1.2,2.75l.67.1c.22.16.16.7-.06.79-.95-.06-1.87-.09-2.98-.09s-2.09.03-2.98.09c-.22-.09-.29-.63-.06-.79l.67-.1c1.17-.16,1.2-.47,1.2-2.75v-5.54ZM152.7,217.66c0,1.14-.79,1.65-1.68,1.65-.98,0-1.61-.73-1.61-1.58,0-1.04.76-1.71,1.71-1.71s1.58.76,1.58,1.65Z"/>
    <path class="cls-1" d="M163.45,223.42c.29.7.51,1.71.51,2.57-.13.22-.6.28-.76.09-.54-1.39-1.49-2.31-2.79-2.31s-2.03.79-2.03,1.93c0,1.3,1.33,1.99,2.44,2.63,1.68.95,3.23,2.03,3.23,4.27,0,2.41-2.22,3.61-4.56,3.61-1.49,0-2.6-.32-3.39-.95-.25-.6-.44-2.15-.38-3.2.16-.19.57-.22.73-.03.54,1.74,1.55,3.26,3.36,3.26,1.14,0,2.12-.67,2.12-2.03,0-1.46-1.27-2.25-2.44-2.91-1.84-1.04-3.13-2.15-3.13-3.89,0-2.31,1.9-3.61,4.31-3.61,1.33,0,2.5.32,2.79.57Z"/>
    <path class="cls-1" d="M170.2,224.62c-.54,0-.57.09-.57.76v5.92c0,1.84.22,3.51,2.31,3.51.32,0,.6-.06.86-.16.29-.09.7-.44.79-.44.25,0,.38.35.32.54-.57.67-1.71,1.46-3.33,1.46-2.72,0-3.29-1.52-3.29-3.42v-7.25c0-.86-.03-.92-.66-.92h-.89c-.19-.13-.22-.48-.1-.67.92-.29,1.71-.7,2.03-.98.41-.38,1.01-1.24,1.33-1.87.16-.06.54-.06.67.16v1.42c0,.57.03.6.57.6h3.51c.38.29.32,1.14.03,1.33h-3.58Z"/>
    <path class="cls-1" d="M177.17,226.68c0-1.24,0-1.39-.85-1.96l-.29-.19c-.13-.13-.13-.47.03-.57.73-.25,2.41-1.08,3.2-1.55.16.03.25.09.25.22v1.84c0,.16.03.25.1.29,1.11-.92,2.31-1.9,3.48-1.9.79,0,1.42.51,1.42,1.27,0,1.04-.85,1.46-1.36,1.46-.32,0-.48-.09-.7-.22-.48-.32-.95-.51-1.39-.51-.51,0-.89.29-1.14.63-.32.44-.41,1.36-.41,2.44v4.31c0,2.28.06,2.66,1.27,2.75l1.14.1c.22.16.16.7-.06.79-1.49-.06-2.41-.09-3.51-.09s-2.09.03-2.91.09c-.22-.09-.29-.63-.06-.79l.6-.1c1.17-.19,1.2-.47,1.2-2.75v-5.54Z"/>
    <path class="cls-1" d="M185.93,242.29c0-.85.57-1.27,1.27-1.27h.6c.51,0,.82-.22,1.04-.57.92-1.42,1.55-2.75,1.84-3.51.09-.25.32-.92.32-1.36,0-.63-.13-1.01-.54-2.18l-2.47-6.78c-.54-1.49-.76-2.25-1.87-2.47l-.79-.16c-.19-.16-.16-.7.09-.79,1.01.06,1.96.09,3.01.09.86,0,1.74-.03,2.75-.09.25.09.29.63.06.79l-.79.16c-.44.09-.7.19-.7.41,0,.38.73,2.44.92,2.98l1.01,2.91c.19.51.79,2.18.92,2.25.09-.06.6-1.04,1.17-2.34l1.08-2.5c.7-1.65,1.11-2.82,1.11-3.17,0-.22-.19-.44-.76-.54l-.98-.16c-.22-.16-.19-.7.06-.79,1.01.06,1.96.09,2.79.09s1.52-.03,2.41-.09c.25.13.29.6.06.79l-.54.09c-1.04.19-1.61,1.11-2.69,3.36l-1.77,3.64c-1.04,2.12-3.64,7.63-5.19,11.08-.54,1.2-1.3,1.49-2.03,1.49-.92,0-1.39-.57-1.39-1.36Z"/>
    <path class="cls-1" d="M220.61,229.4c0,3.96-2.72,6.81-6.68,6.81-3.64,0-6.49-2.56-6.49-6.52s3.01-6.84,6.74-6.84,6.43,2.66,6.43,6.55ZM213.8,223.8c-2.09,0-3.64,1.99-3.64,5.48,0,2.88,1.3,5.98,4.08,5.98s3.64-2.91,3.64-5.35c0-2.69-1.08-6.11-4.08-6.11Z"/>
    <path class="cls-1" d="M226.59,224.62c-.54,0-.54.06-.54.92v6.68c0,2.28.06,2.66,1.2,2.75l1.14.1c.22.16.16.7-.06.79-1.42-.06-2.34-.09-3.45-.09s-2.09.03-3.04.09c-.22-.09-.28-.63-.06-.79l.73-.1c1.17-.16,1.2-.47,1.2-2.75v-6.68c0-.86,0-.92-.63-.92h-1.11c-.19-.13-.22-.41-.09-.6l1.36-.66c.25-.13.47-.32.47-.63,0-1.84.22-3.8.98-5.57.79-1.8,2.57-4.02,5.7-4.02,1.68,0,3.1.76,3.1,1.9,0,.63-.6,1.14-1.2,1.14-.35,0-.54-.13-.76-.38-.6-.7-1.49-1.39-2.53-1.39-.98,0-1.77.6-2.25,1.74-.57,1.46-.7,3.77-.7,5.35v.92c0,.85,0,.89.54.89h3.61c.35.32.13,1.2-.22,1.33h-3.39Z"/>
    <path class="cls-1" d="M84.02,251.29c0-3.29-.06-3.77-1.93-3.99l-.51-.06c-.19-.13-.13-.7.06-.79,1.36.06,2.44.1,3.74.1h5.95c2.03,0,3.89,0,4.27-.1.19.54.38,2.82.51,4.21-.13.19-.63.25-.79.06-.47-1.49-.76-2.6-2.41-3.01-.67-.16-1.68-.19-3.07-.19h-2.28c-.95,0-.95.06-.95,1.27v6.33c0,.89.1.89,1.04.89h1.84c1.33,0,2.31-.06,2.69-.19s.6-.32.76-1.11l.25-1.3c.16-.19.7-.19.82.03,0,.76-.13,1.99-.13,3.2,0,1.14.13,2.34.13,3.04-.13.22-.67.22-.82.03l-.29-1.23c-.13-.57-.35-1.04-.98-1.2-.44-.13-1.2-.16-2.44-.16h-1.84c-.95,0-1.04.03-1.04.86v4.46c0,1.68.1,2.75.6,3.29.38.38,1.04.73,3.83.73,2.44,0,3.36-.13,4.05-.47.57-.32,1.42-1.42,2.25-3.07.22-.16.67-.06.79.22-.22,1.11-1.01,3.55-1.42,4.4-2.85-.06-5.67-.09-8.49-.09h-2.85c-1.36,0-2.44.03-4.31.09-.19-.09-.25-.6-.06-.79l1.04-.1c1.8-.16,1.96-.63,1.96-3.96v-11.4Z"/>
    <path class="cls-1" d="M101.15,258.35c0-1.24,0-1.39-.86-1.96l-.29-.19c-.13-.13-.13-.47.03-.57.73-.25,2.53-1.08,3.17-1.55.13,0,.29.06.35.22-.06.73-.06,1.2-.06,1.49,0,.19.13.35.35.35,1.33-.82,2.82-1.61,4.43-1.61,2.63,0,3.7,1.8,3.7,3.93v5.45c0,2.28.06,2.6,1.2,2.75l.7.1c.22.16.16.7-.06.79-.95-.06-1.87-.09-2.98-.09s-2.09.03-2.95.09c-.22-.09-.28-.63-.06-.79l.6-.1c1.17-.19,1.2-.47,1.2-2.75v-4.72c0-1.8-.82-3.13-2.98-3.13-1.2,0-2.25.51-2.69,1.11-.41.54-.47.98-.47,1.9v4.84c0,2.28.06,2.56,1.2,2.75l.57.1c.22.16.16.7-.06.79-.86-.06-1.77-.09-2.88-.09s-2.09.03-2.98.09c-.22-.09-.29-.63-.06-.79l.67-.1c1.17-.16,1.2-.47,1.2-2.75v-5.54Z"/>
    <path class="cls-1" d="M116.25,258.1c-.47-1.17-.76-2.19-1.9-2.34l-.63-.09c-.19-.25-.16-.7.09-.79.79.06,1.9.09,2.98.09.85,0,1.49-.03,2.56-.09.22.13.25.63.03.79l-.38.06c-.98.16-1.01.32-.7,1.27.73,2.18,1.65,4.4,2.38,6.05.29.63.41.92.51,1.01.13-.09.35-.54.6-1.2.41-1.08,1.49-3.83,1.8-4.65.44-1.11.57-1.77.57-1.96,0-.29-.19-.41-.57-.48l-.73-.09c-.19-.22-.16-.67.06-.79.98.06,1.77.09,2.37.09.79,0,1.33-.03,2.22-.09.22.13.25.6.06.79l-.47.06c-1.11.16-1.39.98-2.31,2.75-.44.85-2.41,5.45-2.91,6.74-.32.79-.63,1.52-1.04,2.6-.06.09-.19.13-.32.13-.16,0-.32-.03-.41-.13-.25-.89-.73-2.12-1.2-3.29l-2.66-6.43Z"/>
    <path class="cls-1" d="M130.32,258.35c0-1.24,0-1.39-.85-1.96l-.29-.19c-.13-.13-.13-.47.03-.57.73-.25,2.53-1.08,3.26-1.55.16,0,.29.06.32.19-.06,1.11-.13,2.63-.13,3.93v5.7c0,2.28.06,2.6,1.2,2.75l.67.1c.22.16.16.7-.06.79-.95-.06-1.87-.09-2.98-.09s-2.09.03-2.98.09c-.22-.09-.29-.63-.06-.79l.67-.1c1.17-.16,1.2-.47,1.2-2.75v-5.54ZM132.95,249.33c0,1.14-.79,1.65-1.68,1.65-.98,0-1.62-.73-1.62-1.58,0-1.04.76-1.71,1.71-1.71s1.58.76,1.58,1.65Z"/>
    <path class="cls-1" d="M138.14,258.35c0-1.24,0-1.39-.86-1.96l-.29-.19c-.13-.13-.13-.47.03-.57.73-.25,2.41-1.08,3.2-1.55.16.03.25.09.25.22v1.84c0,.16.03.25.09.29,1.11-.92,2.31-1.9,3.48-1.9.79,0,1.42.51,1.42,1.27,0,1.04-.85,1.46-1.36,1.46-.32,0-.47-.09-.7-.22-.47-.32-.95-.51-1.39-.51-.51,0-.89.29-1.14.63-.32.44-.41,1.36-.41,2.44v4.31c0,2.28.06,2.66,1.27,2.75l1.14.1c.22.16.16.7-.06.79-1.49-.06-2.41-.09-3.51-.09s-2.09.03-2.91.09c-.22-.09-.28-.63-.06-.79l.6-.1c1.17-.19,1.2-.47,1.2-2.75v-5.54Z"/>
    <path class="cls-1" d="M159.06,261.07c0,3.96-2.72,6.81-6.68,6.81-3.64,0-6.49-2.56-6.49-6.52s3.01-6.84,6.74-6.84,6.43,2.66,6.43,6.55ZM152.25,255.47c-2.09,0-3.64,1.99-3.64,5.48,0,2.88,1.3,5.98,4.08,5.98s3.64-2.91,3.64-5.35c0-2.69-1.08-6.11-4.08-6.11Z"/>
    <path class="cls-1" d="M162.18,258.35c0-1.24,0-1.39-.86-1.96l-.29-.19c-.13-.13-.13-.47.03-.57.73-.25,2.53-1.08,3.17-1.55.13,0,.29.06.35.22-.06.73-.06,1.2-.06,1.49,0,.19.13.35.35.35,1.33-.82,2.82-1.61,4.43-1.61,2.63,0,3.7,1.8,3.7,3.93v5.45c0,2.28.06,2.6,1.2,2.75l.7.1c.22.16.16.7-.06.79-.95-.06-1.87-.09-2.98-.09s-2.09.03-2.95.09c-.22-.09-.28-.63-.06-.79l.6-.1c1.17-.19,1.2-.47,1.2-2.75v-4.72c0-1.8-.82-3.13-2.98-3.13-1.2,0-2.25.51-2.69,1.11-.41.54-.47.98-.47,1.9v4.84c0,2.28.06,2.56,1.2,2.75l.57.1c.22.16.16.7-.06.79-.86-.06-1.77-.09-2.88-.09s-2.09.03-2.98.09c-.22-.09-.29-.63-.06-.79l.67-.1c1.17-.16,1.2-.47,1.2-2.75v-5.54Z"/>
    <path class="cls-1" d="M195.39,259.3c0-2.15-.95-3.26-2.95-3.26-1.2,0-2.18.54-2.63,1.11-.38.47-.47.79-.47,1.9v4.84c0,2.28.06,2.6,1.2,2.75l.67.1c.22.16.16.7-.06.79-.95-.06-1.87-.09-2.98-.09s-1.99.03-2.88.09c-.22-.09-.29-.63-.06-.79l.57-.1c1.17-.19,1.2-.47,1.2-2.75v-4.59c0-2.12-.95-3.26-2.91-3.26-1.3,0-2.18.57-2.66,1.14-.32.38-.48.79-.48,1.8v4.91c0,2.28.06,2.56,1.2,2.75l.57.1c.22.16.16.7-.06.79-.85-.06-1.77-.09-2.88-.09s-2.09.03-3.07.09c-.22-.09-.29-.63-.06-.79l.76-.1c1.17-.16,1.2-.47,1.2-2.75v-5.54c0-1.24,0-1.39-.85-1.96l-.29-.19c-.13-.13-.13-.47.03-.57.73-.25,2.53-1.08,3.17-1.55.13,0,.28.06.35.22-.06.73-.06,1.2-.06,1.49,0,.19.13.35.35.35,1.2-.85,2.69-1.61,4.21-1.61s2.47.57,3.36,1.87c.29.06.51-.06.79-.25,1.27-.89,2.82-1.61,4.31-1.61,2.53,0,3.77,1.74,3.77,3.93v5.45c0,2.28.06,2.6,1.2,2.75l.76.1c.22.16.16.7-.06.79-1.04-.06-1.96-.09-3.07-.09s-1.99.03-2.88.09c-.22-.09-.29-.63-.06-.79l.57-.1c1.17-.19,1.2-.47,1.2-2.75v-4.59Z"/>
    <path class="cls-1" d="M203.64,259.33c-.82,0-.85.06-.85.85,0,3.2,1.87,5.92,5.26,5.92,1.04,0,1.93-.32,2.91-1.55.32-.1.54.09.57.38-1.04,2.15-3.32,2.94-4.97,2.94-2.06,0-3.67-.89-4.59-2.09-.95-1.23-1.33-2.72-1.33-4.12,0-3.89,2.56-7.16,6.36-7.16,2.72,0,4.5,1.87,4.5,3.77,0,.44-.06.7-.13.82-.09.19-.54.22-1.87.22h-5.86ZM205.6,258.38c2.34,0,3.04-.13,3.29-.32.09-.06.19-.19.19-.6,0-.89-.6-1.99-2.44-1.99s-3.48,1.71-3.51,2.75c0,.06,0,.16.22.16h2.25Z"/>
    <path class="cls-1" d="M214.48,258.35c0-1.24,0-1.39-.85-1.96l-.29-.19c-.13-.13-.13-.47.03-.57.73-.25,2.53-1.08,3.17-1.55.13,0,.28.06.35.22-.06.73-.06,1.2-.06,1.49,0,.19.13.35.35.35,1.33-.82,2.82-1.61,4.43-1.61,2.63,0,3.7,1.8,3.7,3.93v5.45c0,2.28.06,2.6,1.2,2.75l.7.1c.22.16.16.7-.06.79-.95-.06-1.87-.09-2.98-.09s-2.09.03-2.94.09c-.22-.09-.29-.63-.06-.79l.6-.1c1.17-.19,1.2-.47,1.2-2.75v-4.72c0-1.8-.82-3.13-2.98-3.13-1.2,0-2.25.51-2.69,1.11-.41.54-.48.98-.48,1.9v4.84c0,2.28.06,2.56,1.2,2.75l.57.1c.22.16.16.7-.06.79-.85-.06-1.77-.09-2.88-.09s-2.09.03-2.98.09c-.22-.09-.29-.63-.06-.79l.67-.1c1.17-.16,1.2-.47,1.2-2.75v-5.54Z"/>
    <path class="cls-1" d="M232.41,256.29c-.54,0-.57.09-.57.76v5.92c0,1.84.22,3.51,2.31,3.51.32,0,.6-.06.86-.16.29-.09.7-.44.79-.44.25,0,.38.35.32.54-.57.67-1.71,1.46-3.33,1.46-2.72,0-3.29-1.52-3.29-3.42v-7.25c0-.86-.03-.92-.66-.92h-.89c-.19-.13-.22-.48-.1-.67.92-.29,1.71-.7,2.03-.98.41-.38,1.01-1.24,1.33-1.87.16-.06.54-.06.67.16v1.42c0,.57.03.6.57.6h3.51c.38.29.32,1.14.03,1.33h-3.58Z"/>
    <path class="cls-1" d="M111.27,292.55c.48-.16.54-.44.54-.92l.03-1.46c.03-1.17-.35-2.75-2.31-2.75-.89,0-1.96.44-2.03,1.42-.03.51-.06.89-.32,1.08-.48.38-1.33.6-1.8.6-.29,0-.44-.16-.44-.44,0-1.65,3.58-3.89,5.89-3.89s3.39,1.33,3.29,3.7l-.19,5.51c-.06,1.46.22,2.75,1.46,2.75.32,0,.6-.09.79-.19.16-.09.32-.22.41-.22.13,0,.22.19.22.41,0,.16-1.11,1.39-2.66,1.39-.76,0-1.52-.29-2.06-.98-.13-.19-.32-.44-.51-.44-.22,0-.6.29-1.23.63-.7.38-1.39.79-2.28.79s-1.68-.25-2.22-.73c-.6-.54-.98-1.33-.98-2.22,0-1.24.6-1.96,2.63-2.69l3.77-1.36ZM109.31,298.12c.63,0,1.62-.47,1.93-.79.38-.38.38-.82.41-1.49l.06-1.87c0-.35-.13-.41-.32-.41s-.73.13-1.3.32c-1.87.63-2.79,1.11-2.79,2.34,0,.54.38,1.9,2,1.9Z"/>
    <path class="cls-1" d="M119.87,290.02c0-1.24,0-1.39-.86-1.96l-.29-.19c-.13-.13-.13-.47.03-.57.73-.25,2.53-1.08,3.17-1.55.13,0,.29.06.35.22-.06.73-.06,1.2-.06,1.49,0,.19.13.35.35.35,1.33-.82,2.82-1.61,4.43-1.61,2.63,0,3.7,1.8,3.7,3.93v5.45c0,2.28.06,2.6,1.2,2.75l.7.1c.22.16.16.7-.06.79-.95-.06-1.87-.09-2.98-.09s-2.09.03-2.95.09c-.22-.09-.28-.63-.06-.79l.6-.1c1.17-.19,1.2-.47,1.2-2.75v-4.72c0-1.8-.82-3.13-2.98-3.13-1.2,0-2.25.51-2.69,1.11-.41.54-.47.98-.47,1.9v4.84c0,2.28.06,2.56,1.2,2.75l.57.1c.22.16.16.7-.06.79-.86-.06-1.77-.09-2.88-.09s-2.09.03-2.98.09c-.22-.09-.29-.63-.06-.79l.67-.1c1.17-.16,1.2-.47,1.2-2.75v-5.54Z"/>
    <path class="cls-1" d="M145.86,294.48c0,2.5.03,3.67.92,3.67.35,0,.89-.16,1.36-.32.22.06.25.86-.03,1.01-1.33.19-3.29.66-4.18,1.01-.19,0-.35-.09-.35-.25v-.54c0-.48,0-.86-.06-.98h-.13c-1.39.95-2.47,1.46-3.99,1.46-3.51,0-5.86-2.75-5.86-6.08,0-4.43,3.36-7.28,7.66-7.28,1.08,0,1.77.16,2.12.29.16,0,.19-.19.19-.44v-4.78c0-1.87-.03-2.06-.98-2.63l-.32-.19c-.16-.1-.16-.54,0-.63.79-.25,2.28-.73,3.42-1.33.13,0,.25.06.32.19-.03.95-.09,2.53-.09,3.93v13.9ZM143.51,289.73c0-.63-.13-.92-.35-1.23-.48-.67-1.42-1.33-2.66-1.33-2.88,0-4.37,2.5-4.37,5.26s1.62,5.6,4.72,5.6c.85,0,1.93-.38,2.44-.89.19-.19.22-.67.22-1.17v-6.24Z"/>
    <path class="cls-1" d="M162.48,294.35c0,3.32.06,3.74,2.09,3.96l.86.1c.19.16.13.7-.06.79-1.8-.06-2.85-.09-4.12-.09-1.33,0-2.47.03-3.86.09-.19-.09-.25-.6-.06-.79l.66-.1c1.84-.25,1.9-.63,1.9-3.96v-11.68c0-2.69-.06-3.23-1.49-3.39l-1.14-.13c-.22-.19-.19-.67.06-.79,1.68-.22,3.64-.25,6.27-.25s4.59.35,6.08,1.27c1.46.92,2.53,2.56,2.53,4.75,0,2.91-1.8,4.37-3.17,5.04-1.39.66-3.07.95-4.37.95-.22-.09-.22-.57-.03-.63,3.42-.63,4.65-2.56,4.65-5.32,0-3.07-1.8-5.07-5.1-5.07-1.68,0-1.71.13-1.71,1.14v14.12Z"/>
    <path class="cls-1" d="M179.24,292.55c.47-.16.54-.44.54-.92l.03-1.46c.03-1.17-.35-2.75-2.31-2.75-.89,0-1.96.44-2.03,1.42-.03.51-.06.89-.32,1.08-.47.38-1.33.6-1.8.6-.29,0-.44-.16-.44-.44,0-1.65,3.58-3.89,5.89-3.89s3.39,1.33,3.29,3.7l-.19,5.51c-.06,1.46.22,2.75,1.46,2.75.32,0,.6-.09.79-.19.16-.09.32-.22.41-.22.13,0,.22.19.22.41,0,.16-1.11,1.39-2.66,1.39-.76,0-1.52-.29-2.06-.98-.13-.19-.32-.44-.51-.44-.22,0-.6.29-1.24.63-.7.38-1.39.79-2.28.79s-1.68-.25-2.22-.73c-.6-.54-.98-1.33-.98-2.22,0-1.24.6-1.96,2.63-2.69l3.77-1.36ZM177.27,298.12c.63,0,1.61-.47,1.93-.79.38-.38.38-.82.41-1.49l.06-1.87c0-.35-.13-.41-.32-.41s-.73.13-1.3.32c-1.87.63-2.79,1.11-2.79,2.34,0,.54.38,1.9,2,1.9Z"/>
    <path class="cls-1" d="M187.81,290.02c0-1.24,0-1.39-.86-1.96l-.29-.19c-.13-.13-.13-.47.03-.57.73-.25,2.41-1.08,3.2-1.55.16.03.25.09.25.22v1.84c0,.16.03.25.09.29,1.11-.92,2.31-1.9,3.48-1.9.79,0,1.42.51,1.42,1.27,0,1.04-.85,1.46-1.36,1.46-.32,0-.47-.09-.7-.22-.47-.32-.95-.51-1.39-.51-.51,0-.89.29-1.14.63-.32.44-.41,1.36-.41,2.44v4.31c0,2.28.06,2.66,1.27,2.75l1.14.1c.22.16.16.7-.06.79-1.49-.06-2.41-.09-3.51-.09s-2.09.03-2.91.09c-.22-.09-.28-.63-.06-.79l.6-.1c1.17-.19,1.2-.47,1.2-2.75v-5.54Z"/>
    <path class="cls-1" d="M197.17,281.25c0-1.87-.03-2.06-.98-2.63l-.32-.19c-.16-.1-.16-.54,0-.63.79-.25,2.28-.73,3.42-1.33.13,0,.25.06.32.19-.03.95-.09,2.53-.09,3.93v10.86c0,.41.03.47.57.47.7,0,1.3-.35,2.15-1.23l1.3-1.39c.89-.95,1.11-1.3,1.11-1.46s-.16-.25-.7-.32l-.76-.1c-.29-.09-.29-.7,0-.79h.73c1.39,0,3.26-.06,5.03-.25.22.1.25.63.06.79l-1.01.19c-.63.13-1.17.44-2,1.11-1.23.98-2.31,2.12-2.88,2.66-.38.35-.41.51-.22.76.54.73,1.04,1.33,2.12,2.53,1.23,1.39,2.34,2.63,2.98,3.23.44.41,1.08.6,1.65.7l.44.06c.22.16.19.7-.06.79-.92-.06-2-.09-3.01-.09-1.27,0-2.38.03-3.29.09-.25-.13-.29-.67-.06-.79l.57-.1c.48-.06.79-.13.79-.32s-.13-.41-.54-.89l-3.39-3.93c-.29-.32-.63-.44-.98-.44-.57,0-.6.09-.6,1.08v1.74c0,2.28.06,2.6,1.2,2.75l.76.1c.22.16.16.7-.06.79-1.04-.06-1.96-.09-3.07-.09s-2.09.03-3.04.09c-.22-.09-.28-.63-.03-.79l.7-.1c1.17-.16,1.2-.47,1.2-2.75v-14.31Z"/>
    <path class="cls-1" d="M218.68,286.75c.29.7.51,1.71.51,2.57-.13.22-.6.28-.76.09-.54-1.39-1.49-2.31-2.79-2.31s-2.03.79-2.03,1.93c0,1.3,1.33,1.99,2.44,2.63,1.68.95,3.23,2.03,3.23,4.27,0,2.41-2.22,3.61-4.56,3.61-1.49,0-2.6-.32-3.39-.95-.25-.6-.44-2.15-.38-3.2.16-.19.57-.22.73-.03.54,1.74,1.55,3.26,3.36,3.26,1.14,0,2.12-.67,2.12-2.03,0-1.46-1.27-2.25-2.44-2.91-1.84-1.04-3.13-2.15-3.13-3.89,0-2.31,1.9-3.61,4.31-3.61,1.33,0,2.5.32,2.79.57Z"/>
  </g>
  <rect class="cls-2" x=".24" width="316.63" height="349.65"/>
</svg>